<svg xmlns="http://www.w3.org/2000/svg" width="17" height="17" viewBox="0 0 17 17">
  <defs>
    <style>
      .cls-1 {
        fill: #7c7e88;
        fill-rule: evenodd;
      }
    </style>
  </defs>
  <path id="logo.svg" class="cls-1" d="M48.5,47A1.5,1.5,0,1,1,47,48.5,1.5,1.5,0,0,1,48.5,47Zm0-7A1.5,1.5,0,1,1,47,41.5,1.5,1.5,0,0,1,48.5,40Zm0,14A1.5,1.5,0,1,1,47,55.5,1.5,1.5,0,0,1,48.5,54Zm-7-7A1.5,1.5,0,1,1,40,48.5,1.5,1.5,0,0,1,41.5,47Zm14,0A1.5,1.5,0,1,1,54,48.5,1.5,1.5,0,0,1,55.5,47ZM42.49,52.389a1.5,1.5,0,1,1,0,2.122A1.5,1.5,0,0,1,42.49,52.389Zm9.9-9.9a1.5,1.5,0,1,1,0,2.122A1.5,1.5,0,0,1,52.389,42.489ZM44.6,42.43a1.511,1.511,0,1,1-2.137,0A1.511,1.511,0,0,1,44.6,42.43ZM54.57,52.4a1.511,1.511,0,1,1-2.137,0A1.511,1.511,0,0,1,54.57,52.4Z" transform="translate(-40 -40)"/>
</svg>
