<svg xmlns="http://www.w3.org/2000/svg" xmlns:xlink="http://www.w3.org/1999/xlink" width="38" height="32" viewBox="0 0 38 32"><defs><path id="byvra" d="M71.79 8676a14.2 14.2 0 0 1-4.13 1.14 7.22 7.22 0 0 0 3.16-4 14.38 14.38 0 0 1-4.56 1.76 7.2 7.2 0 0 0-12.24 6.58 20.36 20.36 0 0 1-14.81-7.54 7.21 7.21 0 0 0 2.22 9.64 7.1 7.1 0 0 1-3.25-.9v.08c0 3.5 2.47 6.42 5.76 7.08a7.13 7.13 0 0 1-3.24.12 7.2 7.2 0 0 0 6.7 5.02 14.37 14.37 0 0 1-10.63 2.99 20.28 20.28 0 0 0 11.02 3.24c13.2 0 20.44-11 20.44-20.54l-.02-.93a14.6 14.6 0 0 0 3.58-3.74z"/></defs><g><g opacity=".4" transform="translate(-35 -8671)"><use xlink:href="#byvra"/></g></g></svg>