<svg xmlns="http://www.w3.org/2000/svg" width="162" height="14" viewBox="0 0 162 14">
  <defs>
    <style>
      .cls-1 {
        fill: #191919;
        fill-rule: evenodd;
        opacity: 0.2;
      }
    </style>
  </defs>
  <path id="waves.svg" class="cls-1" d="M435.581,894.5l-10.013-10.324L415.554,894.5l-10.013-10.324L395.527,894.5l-10.014-10.324L375.5,894.5l-10.014-10.324L355.473,894.5l-10.014-10.324L335.446,894.5l-10.014-10.324L315.419,894.5,305.4,884.176l-9.122,9.4-1.783-1.839L305.4,880.5l10.014,10.323L325.432,880.5l10.014,10.323L345.459,880.5l10.014,10.323L365.486,880.5,375.5,890.822,385.513,880.5l10.014,10.323L405.541,880.5l10.013,10.323L425.568,880.5l10.013,10.323L445.6,880.5l10.9,11.242-1.783,1.839-9.122-9.4Z" transform="translate(-294.5 -880.5)"/>
</svg>
