<svg xmlns="http://www.w3.org/2000/svg" width="20" height="14" viewBox="0 0 20 14">
  <defs>
    <style>
      .cls-1 {
        fill: #c6ccd2;
        fill-rule: evenodd;
      }
    </style>
  </defs>
  <path id="E-mail_Icon.svg" data-name="E-mail Icon.svg" class="cls-1" d="M184.432,290.221a0.519,0.519,0,0,0-.294.091s-8.359,7.085-8.43,7.138a1.188,1.188,0,0,1-1.436,0c-0.069-.051-8.425-7.134-8.425-7.134a0.526,0.526,0,0,0-.294-0.09,0.587,0.587,0,0,0-.563.607v9.818a1.32,1.32,0,0,0,1.266,1.367h17.473a1.319,1.319,0,0,0,1.265-1.367v-9.818A0.586,0.586,0,0,0,184.432,290.221Zm-10.02,5.571a0.941,0.941,0,0,0,1.179,0l8.077-6.675L183.8,289a0.632,0.632,0,0,0,.141-0.4,0.586,0.586,0,0,0-.563-0.607H166.624a0.586,0.586,0,0,0-.562.607,0.623,0.623,0,0,0,.17.435Z" transform="translate(-165 -288)"/>
</svg>
