<svg xmlns="http://www.w3.org/2000/svg" width="14" height="18" viewBox="0 0 14 18">
  <defs>
    <style>
      .cls-1 {
        fill: #c6ccd2;
        fill-rule: evenodd;
      }
    </style>
  </defs>
  <path id="Lock_Icon.svg" data-name="Lock Icon.svg" class="cls-1" d="M180.741,363.905h0q-0.037,0-.072-0.009h0a0.617,0.617,0,0,1-.548-0.581v-1.789c0-2.5-2.294-4.519-5.124-4.519s-5.126,2.023-5.126,4.519v1.789a0.616,0.616,0,0,1-.547.581h0q-0.035.006-.072,0.009h0A1.362,1.362,0,0,0,168,365.189v8.5a1.4,1.4,0,0,0,1.474,1.3h11.043a1.4,1.4,0,0,0,1.474-1.3v-8.5A1.363,1.363,0,0,0,180.741,363.905Zm-8.4-2.379a2.676,2.676,0,0,1,5.31,0V363.3a0.635,0.635,0,0,1-.671.59h-3.968a0.635,0.635,0,0,1-.671-0.59v-1.773Z" transform="translate(-168 -357)"/>
</svg>
