<?xml version="1.0" standalone="no"?>
<!DOCTYPE svg PUBLIC "-//W3C//DTD SVG 1.1//EN" "http://www.w3.org/Graphics/SVG/1.1/DTD/svg11.dtd" >
<svg>
<metadata>
Created by FontForge 20090622 at Sun Oct 15 12:11:36 2017
 By deploy user
2002 | Eric Olson | Process Type Foundry | All Rights Reserved
</metadata>
<defs>
<font id="Bryant-Regular" horiz-adv-x="685" >
  <font-face 
    font-family="Bryant-Regular"
    font-weight="400"
    font-stretch="normal"
    units-per-em="1000"
    panose-1="2 11 5 0 0 0 0 0 0 0"
    ascent="782"
    descent="-218"
    x-height="433"
    cap-height="675"
    bbox="-25 -218 1162 889"
    underline-thickness="20"
    underline-position="-113"
    unicode-range="U+0020-U+FB02"
  />
<missing-glyph horiz-adv-x="1000" 
 />
    <glyph glyph-name=".notdef" horiz-adv-x="1000" 
 />
    <glyph glyph-name=".null" horiz-adv-x="0" 
 />
    <glyph glyph-name="nonmarkingreturn" horiz-adv-x="333" 
 />
    <glyph glyph-name="space" unicode=" " horiz-adv-x="280" 
 />
    <glyph glyph-name="space" unicode="&#xa0;" horiz-adv-x="280" 
 />
    <glyph glyph-name="exclam" unicode="!" horiz-adv-x="299" 
d="M180 451q-7 -120 -15 -288q0 -15 -15 -15q-16 0 -16 15l-15 288v193q0 13 9 22t22 9t21.5 -9t8.5 -22v-193zM194 40q0 -19 -13 -32t-32 -13t-31.5 13t-12.5 32t12.5 32t31.5 13t32 -13t13 -32z" />
    <glyph glyph-name="quotedbl" unicode="&#x22;" horiz-adv-x="361" 
d="M266 463q0 -11 -7 -18t-18 -7q-10 0 -17 7t-7 18v188q0 11 6.5 17.5t17.5 6.5t18 -7t7 -17v-188zM144 463q0 -11 -7 -18t-17 -7t-17.5 7t-7.5 18v188q0 10 7 17t18 7q10 0 17 -6.5t7 -17.5v-188z" />
    <glyph glyph-name="numbersign" unicode="#" horiz-adv-x="528" 
d="M493 435q0 -8 -6 -14.5t-14 -6.5h-73l-17 -135h68q8 0 14 -6.5t6 -14.5t-6 -14.5t-14 -6.5h-74l-28 -226q-1 -9 -8.5 -15t-16.5 -4t-15 9t-5 16l29 220h-154l-29 -226q-2 -9 -9 -14.5t-16 -4.5q-9 2 -14.5 9t-4.5 16l28 220h-68q-8 0 -14.5 6.5t-6.5 14.5t6.5 14.5
t14.5 6.5h74l17 135h-72q-8 0 -14 6.5t-6 14.5t6 14.5t14 6.5h77l26 200q4 22 24 19q9 -2 14.5 -9t4.5 -16l-25 -194h155l25 200q2 9 9 14.5t16 4.5q9 -2 14.5 -9t4.5 -16l-25 -194h68q8 0 14 -6.5t6 -14.5zM355 414h-154l-17 -135h155z" />
    <glyph glyph-name="dollar" unicode="$" horiz-adv-x="572" 
d="M512 172q0 -73 -53.5 -124.5t-140.5 -56.5v-74q0 -5 -4.5 -9t-9.5 -4q-13 0 -13 13v73q-124 2 -227 87q-14 12 -14 25q0 6 3 12q8 16 25 16q10 0 17 -6q87 -76 196 -79v269q-97 43 -148.5 88.5t-51.5 111.5q0 74 52.5 118t147.5 47v60q0 13 13 13q5 0 9.5 -4t4.5 -9v-60
q93 -3 176 -49q17 -8 17 -25q0 -5 -4 -13q-7 -14 -23 -14q-10 0 -17 4q-72 38 -149 41v-260q194 -75 194 -191zM291 375v248q-68 -2 -104 -29.5t-36 -79.5q0 -42 31.5 -72.5t108.5 -66.5zM451 169q0 40 -29 67t-104 65v-255q59 3 96 36.5t37 86.5z" />
    <glyph glyph-name="percent" unicode="%" horiz-adv-x="816" 
d="M771 142q0 -64 -45.5 -109.5t-109.5 -45.5q-65 0 -110.5 45.5t-45.5 109.5t45.5 109.5t110.5 45.5q64 0 109.5 -45.5t45.5 -109.5zM604 654q0 -4 -3 -9l-356 -643q-6 -10 -19 -10q-6 0 -9 2q-11 6 -11 18q0 6 3 10l357 643q6 10 18 10q6 0 9 -2q11 -6 11 -19zM355 523
q0 -65 -45.5 -110t-109.5 -45t-109.5 45t-45.5 110t45.5 110t109.5 45t109.5 -45t45.5 -110zM728 142q0 50 -31 83t-81 33t-81 -33t-31 -83q0 -49 31 -82t81 -33t81 33t31 82zM312 523q0 50 -31 83t-81 33q-49 0 -80 -33t-31 -83t30.5 -82.5t80.5 -32.5t81 33t31 82z" />
    <glyph glyph-name="ampersand" unicode="&#x26;" 
d="M665 34q0 -10 -12 -19q-42 -28 -88 -28q-40 0 -69.5 20.5t-56.5 61.5q-84 -82 -187 -82q-81 0 -139 55t-58 135q0 69 41 116.5t124 92.5q-71 99 -71 161q0 59 39 95t103 36q62 0 103 -36.5t41 -93.5q0 -48 -37.5 -97t-102.5 -82q138 -206 149 -221q11 14 19 26.5
t15.5 26.5t11 22l11.5 26.5t11 24.5q7 16 23 16q4 0 10 -2q16 -6 16 -24q0 -5 -1 -8q-27 -77 -85 -151q25 -39 44 -55t46 -16q31 0 69 18q6 3 10 3q11 0 18 -12q3 -5 3 -9zM382 547q0 38 -27 61t-64 23q-39 0 -63 -21.5t-24 -63.5q0 -24 12 -52t21 -41l33 -46q50 25 81 62
t31 78zM409 112q-27 36 -160 233q-70 -39 -103 -74.5t-33 -91.5q0 -62 42.5 -101.5t98.5 -39.5q86 0 155 74z" />
    <glyph glyph-name="quotesingle" unicode="'" horiz-adv-x="239" 
d="M144 463q0 -11 -7 -18t-17 -7t-17.5 7t-7.5 18v188q0 10 7 17t18 7q10 0 17 -6.5t7 -17.5v-188z" />
    <glyph glyph-name="parenleft" unicode="(" horiz-adv-x="282" 
d="M247 -110q0 -10 -7.5 -17.5t-18.5 -7.5q-13 0 -22 12q-63 90 -96 201.5t-33 225.5t32.5 225.5t96.5 199.5q9 12 22 12q11 0 18.5 -7.5t7.5 -17.5t-4 -15q-114 -192 -114 -397q0 -202 114 -399q4 -8 4 -15z" />
    <glyph glyph-name="parenright" unicode=")" horiz-adv-x="283" 
d="M213 304q0 -238 -129 -427q-7 -12 -23 -12q-9 0 -14 4q-12 9 -12 21q0 8 4 15q115 188 115 399q0 210 -115 397q-4 7 -4 15q0 12 11 20q8 5 16 5q13 0 22 -12q129 -185 129 -425z" />
    <glyph glyph-name="asterisk" unicode="*" horiz-adv-x="362" 
d="M332 562q0 -15 -15 -20l-102 -34l64 -82q4 -5 4 -12q0 -11 -8 -17q-5 -4 -12 -4q-11 0 -17 8l-65 84l-66 -84q-6 -8 -17 -8q-7 0 -12 4q-8 6 -8 15t4 14l64 82l-103 34q-13 5 -13 19v7q5 14 20 14q5 0 7 -1l102 -34v107q0 8 7 14.5t15 6.5t14 -6.5t6 -14.5v-107l103 34
q2 1 8 1q13 0 18 -14q2 -4 2 -6z" />
    <glyph glyph-name="plus" unicode="+" horiz-adv-x="571" 
d="M511 218q0 -11 -7 -18t-17 -7h-174v-173q0 -11 -8.5 -19.5t-19.5 -8.5t-19 8.5t-8 19.5v173h-174q-10 0 -17 7t-7 18q0 10 7 17t17 7h174v174q0 11 8 19t19 8t19.5 -8t8.5 -19v-174h174q11 0 17.5 -7t6.5 -17z" />
    <glyph glyph-name="comma" unicode="," horiz-adv-x="300" 
d="M190 32q0 -102 -67 -179q-6 -6 -12 -6q-5 0 -8 2q-8 5 -8 14q0 4 2 6q50 60 50 127h-1l-2 -1q-19 0 -32 13t-13 32t13 31.5t32 12.5q46 0 46 -52z" />
    <glyph glyph-name="hyphen" unicode="-" horiz-adv-x="431" 
d="M336 268q0 -11 -8 -19t-19 -8h-188q-11 0 -18.5 8t-7.5 19t7.5 18.5t18.5 7.5h188q11 0 19 -7.5t8 -18.5z" />
    <glyph glyph-name="hyphen" unicode="&#xad;" horiz-adv-x="431" 
d="M336 268q0 -11 -8 -19t-19 -8h-188q-11 0 -18.5 8t-7.5 19t7.5 18.5t18.5 7.5h188q11 0 19 -7.5t8 -18.5z" />
    <glyph glyph-name="period" unicode="." horiz-adv-x="309" 
d="M199 40q0 -19 -13 -32t-32 -13t-31.5 13t-12.5 32t12.5 32t31.5 13t32 -13t13 -32z" />
    <glyph glyph-name="slash" unicode="/" horiz-adv-x="392" 
d="M347 701q0 -5 -1 -8l-254 -782q-5 -16 -21 -16q-6 0 -9 1q-17 5 -17 23q0 4 1 7l254 782q5 17 24 17q5 0 7 -1q16 -5 16 -23z" />
    <glyph glyph-name="zero" unicode="0" horiz-adv-x="651" 
d="M586 333q0 -89 -26.5 -165.5t-87.5 -128.5t-146 -52t-146 52t-88 128.5t-27 165.5q0 66 16 126t47 110t82 79.5t116 29.5q85 0 146 -52t87.5 -128t26.5 -165zM523 333q0 126 -51.5 208t-145.5 82t-146.5 -82t-52.5 -208t52.5 -208.5t146.5 -82.5t145.5 82t51.5 209z" />
    <glyph glyph-name="one" unicode="1" horiz-adv-x="407" 
d="M292 23q0 -13 -9 -22t-22 -9t-22 9t-9 22v585q-1 0 -44.5 -14l-84 -27t-45.5 -13h-3q-11 0 -19 8t-9 18v6q2 17 19 22q186 62 212 66h3l2 1q13 0 22 -8.5t9 -22.5v-621z" />
    <glyph glyph-name="two" unicode="2" horiz-adv-x="662" 
d="M577 27q0 -11 -8 -19t-19 -8h-448q-11 0 -19 8.5t-8 19.5q0 50 12.5 91t31.5 69t49.5 53t57 40t64.5 33q122 56 171 93t49 94q0 56 -48.5 89t-123.5 33q-107 0 -199 -67q-7 -5 -15 -5q-14 0 -23 11q-6 7 -6 17q0 13 14 25q43 35 104 54.5t122 19.5q100 0 168.5 -47
t68.5 -130q0 -41 -16.5 -74t-50.5 -59t-62.5 -42t-74.5 -37q-43 -19 -65.5 -30.5t-56.5 -34t-52 -43.5t-32.5 -54t-15.5 -72h404q11 0 19 -8.5t8 -19.5z" />
    <glyph glyph-name="three" unicode="3" horiz-adv-x="632" 
d="M562 187q0 -95 -77.5 -147.5t-176.5 -52.5q-78 0 -152 36.5t-103 101.5q-3 6 -3 11q0 12 8.5 20t20.5 8q13 0 23 -15q20 -32 29 -41q62 -67 177 -67q75 0 133.5 38t58.5 110q0 51 -35 85t-80 47t-94 13h-44q-11 0 -19 8.5t-8 19.5t8.5 19.5t19.5 8.5h44q68 0 116.5 27.5
t48.5 90.5q0 56 -45 86.5t-103 30.5q-28 0 -53.5 -7t-41 -14.5t-47.5 -25.5q-7 -4 -15 -4q-11 0 -18.5 7t-7.5 17q0 12 10 22q26 26 78.5 42t96.5 16q81 0 144 -44.5t63 -121.5q0 -47 -29.5 -85t-75.5 -59q65 -22 107 -69t42 -112z" />
    <glyph glyph-name="four" unicode="4" horiz-adv-x="689" 
d="M654 211q0 -11 -8 -19t-19 -8h-139v-161q0 -13 -9 -22t-22 -9t-22 9t-9 22v161h-363q-10 0 -18 8q-10 10 -10 20t8 20l390 432q9 11 25 11q13 0 21.5 -9t8.5 -22v-405h139q11 0 19 -8.5t8 -19.5zM426 239v333l-301 -333h301z" />
    <glyph glyph-name="five" unicode="5" horiz-adv-x="648" 
d="M578 215q0 -95 -76.5 -161.5t-185.5 -66.5q-75 0 -141.5 30.5t-109.5 87.5q-5 7 -5 14q0 15 13 23q7 4 14 4q13 0 23 -12q42 -49 90 -71t116 -22q83 0 141.5 49.5t58.5 122.5q0 70 -50.5 113.5t-125.5 43.5q-104 0 -176 -51q-9 -6 -19 -6q-12 1 -20 10t-7 21
q0 3 23.5 149.5t24.5 147.5q4 25 29 25h323q11 0 19 -8.5t8 -19.5t-8 -19t-19 -8h-298l-37 -226q68 40 155 40q104 0 172 -58t68 -152z" />
    <glyph glyph-name="six" unicode="6" horiz-adv-x="619" 
d="M559 206q0 -90 -68.5 -154.5t-174.5 -64.5q-114 0 -182.5 71.5t-68.5 189.5q0 187 90 308.5t253 121.5q69 0 114 -16q20 -8 20 -26q0 -1 -0.5 -3t-0.5 -3q-5 -18 -23 -20q-6 0 -9 1q-37 12 -104 12q-120 0 -190.5 -85t-81.5 -213q29 47 80 71t109 24q105 0 171 -60.5
t66 -153.5zM497 202q0 71 -49 117t-130 46q-76 0 -132.5 -43t-56.5 -112q0 -75 53.5 -122t133.5 -47q79 0 130 46t51 115z" />
    <glyph glyph-name="seven" unicode="7" horiz-adv-x="541" 
d="M516 640q0 -11 -4 -16q-75 -99 -139 -231q-92 -187 -92 -370q0 -13 -9 -22t-22 -9t-22 9t-9 22q0 163 69 332q57 141 151 256h-397q-11 0 -19 8.5t-8 19.5t8 19t19 8h447q27 0 27 -26z" />
    <glyph glyph-name="eight" unicode="8" horiz-adv-x="655" 
d="M580 187q0 -85 -74 -142.5t-178 -57.5t-178.5 57.5t-74.5 142.5q0 63 41.5 110.5t107.5 69.5q-47 22 -75.5 60t-28.5 85q0 72 60.5 119t147.5 47t147.5 -47t60.5 -119q0 -46 -29 -84.5t-76 -60.5q66 -22 107.5 -69.5t41.5 -110.5zM475 508q0 50 -41.5 83.5t-105.5 33.5
t-106 -32.5t-42 -84.5q0 -53 43 -87.5t105 -34.5q61 0 104 35t43 87zM518 189q0 65 -56.5 106.5t-133.5 41.5t-134 -41.5t-57 -106.5t57 -106.5t134 -41.5t133.5 41.5t56.5 106.5z" />
    <glyph glyph-name="nine" unicode="9" horiz-adv-x="619" 
d="M554 417q0 -187 -90 -308.5t-253 -121.5q-69 0 -114 16q-20 8 -20 26q0 4 1 6q5 20 23 20q6 0 9 -1q38 -12 104 -12q120 0 190 85t81 213q-29 -47 -80 -71t-109 -24q-105 0 -170.5 60.5t-65.5 153.5q0 90 68 154.5t174 64.5q114 0 183 -71.5t69 -189.5zM489 455
q0 75 -53 121.5t-133 46.5q-79 0 -130 -45.5t-51 -114.5q0 -71 49 -117t130 -46q75 0 131.5 43t56.5 112z" />
    <glyph glyph-name="colon" unicode=":" horiz-adv-x="310" 
d="M200 388q0 -19 -13 -31.5t-32 -12.5t-32 12.5t-13 31.5t13 32t32 13t32 -13t13 -32zM200 40q0 -19 -13 -32t-32 -13t-32 13t-13 32t13 32t32 13t32 -13t13 -32z" />
    <glyph glyph-name="semicolon" unicode=";" horiz-adv-x="301" 
d="M189 388q0 -19 -13 -32t-32 -13t-31.5 13t-12.5 32t12.5 32t31.5 13t32 -13t13 -32zM191 32q0 -101 -68 -179q-6 -6 -11 -6q-6 0 -9 2q-8 4 -8 14q0 4 2 6q50 60 50 127h-1l-2 -1q-19 0 -31.5 13t-12.5 32t12.5 31.5t31.5 12.5q22 0 34.5 -13.5t12.5 -38.5z" />
    <glyph glyph-name="less" unicode="&#x3c;" horiz-adv-x="604" 
d="M469 15q0 -9 -4 -14q-9 -12 -22 -12q-9 0 -14 4l-341 216q-13 8 -13 23q0 14 13 22l341 216q5 4 14 4q13 0 22 -12q4 -5 4 -15q0 -14 -13 -22l-304 -193l304 -195q13 -8 13 -22z" />
    <glyph glyph-name="equal" unicode="=" horiz-adv-x="505" 
d="M410 306q0 -10 -7.5 -17t-17.5 -7h-266q-10 0 -17 7t-7 17t7 17t17 7h266q10 0 17.5 -7t7.5 -17zM410 176q0 -10 -7.5 -16.5t-17.5 -6.5h-266q-10 0 -17 6.5t-7 16.5t7 17.5t17 7.5h266q10 0 17.5 -7.5t7.5 -17.5z" />
    <glyph glyph-name="greater" unicode="&#x3e;" horiz-adv-x="605" 
d="M530 232q0 -14 -14 -23l-341 -216q-5 -4 -14 -4q-13 0 -22 12q-4 5 -4 14q0 14 13 22l304 195l-304 194q-13 8 -13 21q0 10 4 15q9 12 22 12q9 0 14 -4l342 -216q13 -8 13 -22z" />
    <glyph glyph-name="question" unicode="?" horiz-adv-x="575" 
d="M490 517q0 -65 -59 -131l-100 -113q-29 -34 -29 -97q0 -12 -7.5 -20t-19.5 -8t-20.5 8t-8.5 20q0 89 41 135q13 15 44 46t49 51t34 50.5t16 58.5q0 48 -41.5 77.5t-100.5 29.5q-88 0 -166 -50q-8 -5 -15 -5q-14 0 -22 11q-5 7 -5 13q-2 13 11 23q33 27 86.5 44.5
t107.5 17.5q86 0 145.5 -43.5t59.5 -117.5zM322 40q0 -19 -13 -32t-32 -13t-32 13t-13 32t13 32t32 13t32 -13t13 -32z" />
    <glyph glyph-name="at" unicode="@" horiz-adv-x="761" 
d="M736 71q2 -14 -11 -20q-121 -64 -293 -64q-167 0 -272 99t-105 248q0 146 91.5 245t240.5 99q105 0 164 -55.5t59 -145.5v-283q0 -10 -7 -16.5t-17 -6.5t-16.5 6.5t-6.5 16.5v40q-18 -33 -53.5 -53t-74.5 -20q-70 0 -118 50.5t-48 120.5t47.5 119.5t118.5 49.5
q41 0 76.5 -20t52.5 -53v49q0 76 -47.5 118t-130.5 42q-131 0 -208 -87.5t-77 -215.5q0 -132 90 -220t241 -88q139 0 273 57q2 1 5 2t5 1q8 2 14 -3t7 -12zM562 332q0 52 -35 90t-88 38t-88 -38t-35 -90q0 -53 35 -91t88 -38t88 38t35 91z" />
    <glyph glyph-name="A" unicode="A" 
d="M655 23q0 -20 -18 -28q-6 -3 -12 -3q-21 0 -28 18l-84 185h-341l-83 -184q-9 -19 -28 -19q-7 0 -13 3q-18 8 -18 28q0 9 2 13l282 620q8 19 29 19q19 0 28 -19l282 -620q2 -4 2 -13zM487 252l-144 320l-145 -320h289z" />
    <glyph glyph-name="B" unicode="B" horiz-adv-x="631" 
d="M596 189q0 -80 -56.5 -134.5t-155.5 -54.5h-246q-14 0 -23.5 10t-9.5 23v601q0 13 9.5 22.5t23.5 9.5h222q86 0 139.5 -46.5t53.5 -118.5q0 -44 -24.5 -84.5t-66.5 -58.5q57 -13 95.5 -62t38.5 -107zM487 493q0 51 -32 82.5t-86 31.5h-198v-227h198q55 0 86.5 32t31.5 81
zM531 190q0 54 -34.5 92.5t-91.5 38.5h-234v-262h234q58 0 92 35.5t34 95.5z" />
    <glyph glyph-name="C" unicode="C" horiz-adv-x="712" 
d="M652 143q0 -12 -7 -20q-100 -136 -262 -136q-142 0 -237.5 103t-95.5 243t95.5 242.5t237.5 102.5q140 0 227 -95q9 -9 9 -21t-8 -20q-7 -9 -20 -9q-10 0 -20 8q-46 38 -89 58t-99 20q-118 0 -192.5 -85t-74.5 -201t74.5 -201.5t192.5 -85.5q72 0 122 29.5t96 85.5
q9 10 22 10q12 0 19 -7q10 -9 10 -21z" />
    <glyph glyph-name="D" unicode="D" horiz-adv-x="687" 
d="M642 333q0 -139 -89 -236t-234 -97h-181q-14 0 -23.5 10t-9.5 23v601q0 13 9.5 22.5t23.5 9.5h181q145 0 234 -97t89 -236zM576 333q0 116 -70 195t-193 79h-142v-548h142q123 0 193 79t70 195z" />
    <glyph glyph-name="E" unicode="E" horiz-adv-x="607" 
d="M567 30q0 -13 -8.5 -21.5t-21.5 -8.5h-399q-14 0 -23.5 10t-9.5 23v601q0 13 9.5 22.5t23.5 9.5h384q13 0 22 -8.5t9 -21.5t-9 -21.5t-22 -8.5h-352v-229h199q13 0 21.5 -8.5t8.5 -21.5t-8.5 -21.5t-21.5 -8.5h-199v-257h367q13 0 21.5 -8.5t8.5 -21.5z" />
    <glyph glyph-name="F" unicode="F" horiz-adv-x="580" 
d="M565 636q0 -13 -8.5 -21.5t-21.5 -8.5h-364v-229h211q13 0 21 -8.5t8 -21.5t-8 -21.5t-21 -8.5h-211v-293q0 -13 -9.5 -22.5t-23.5 -9.5t-23.5 9.5t-9.5 22.5v610q0 13 9.5 22.5t23.5 9.5h397q13 0 21.5 -8.5t8.5 -21.5z" />
    <glyph glyph-name="G" unicode="G" horiz-adv-x="728" 
d="M663 143q0 -11 -8 -22q-49 -65 -120 -99.5t-152 -34.5q-142 0 -237.5 103t-95.5 243t95.5 242.5t237.5 102.5q135 0 228 -93q8 -8 8 -21t-7 -20q-7 -8 -20 -8t-21 7q-92 76 -188 76q-118 0 -193 -85t-75 -201q0 -117 75 -202t193 -85q67 0 123 27t91 75v148h-184
q-12 0 -20.5 9t-8.5 21t8.5 20.5t20.5 8.5h217q13 0 23 -10t10 -24v-178z" />
    <glyph glyph-name="H" unicode="H" horiz-adv-x="725" 
d="M620 25q0 -14 -9.5 -23.5t-22.5 -9.5q-14 0 -23.5 10t-9.5 23v285h-385v-285q0 -14 -9.5 -23.5t-22.5 -9.5q-14 0 -23.5 10t-9.5 23v617q0 14 9.5 23.5t23.5 9.5q13 0 22.5 -9.5t9.5 -23.5v-272h385v272q0 14 9.5 23.5t23.5 9.5q13 0 22.5 -9.5t9.5 -23.5v-617z" />
    <glyph glyph-name="I" unicode="I" horiz-adv-x="275" 
d="M170 25q0 -14 -9.5 -23.5t-22.5 -9.5q-14 0 -23.5 10t-9.5 23v617q0 14 9.5 23.5t23.5 9.5q13 0 22.5 -9.5t9.5 -23.5v-617z" />
    <glyph glyph-name="J" unicode="J" horiz-adv-x="600" 
d="M510 249q0 -115 -59.5 -188.5t-173.5 -73.5q-88 0 -151 50.5t-79 133.5q-2 8 -2 12q-1 14 7.5 23t21.5 10q28 2 33 -25q11 -65 57.5 -105t112.5 -40q79 0 123.5 52t44.5 150v394q0 14 9.5 23.5t23.5 9.5q13 0 22.5 -9.5t9.5 -23.5v-393z" />
    <glyph glyph-name="K" unicode="K" horiz-adv-x="687" 
d="M627 22q0 -17 -14 -25q-8 -5 -16 -5q-18 0 -26 15l-230 390l-171 -164v-208q0 -14 -9.5 -23.5t-22.5 -9.5q-14 0 -23.5 10t-9.5 23v617q0 14 9.5 23.5t23.5 9.5q13 0 22.5 -9.5t9.5 -23.5v-324l362 348q9 9 21 9q10 0 21 -9q10 -10 10 -22t-10 -22l-188 -181l237 -403
q4 -7 4 -16z" />
    <glyph glyph-name="L" unicode="L" horiz-adv-x="585" 
d="M553 31q0 -13 -8.5 -22t-21.5 -9h-385q-14 0 -23.5 10t-9.5 23v609q0 14 9.5 23.5t23.5 9.5t23.5 -9.5t9.5 -23.5v-582h352q13 0 21.5 -8t8.5 -21z" />
    <glyph glyph-name="M" unicode="M" horiz-adv-x="845" 
d="M740 23q0 -13 -9 -22t-22 -9t-22 9t-9 22v487q-25 -51 -81.5 -176l-100.5 -225l-45 -100q-8 -17 -28 -17q-21 0 -28 17l-227 500v-485q0 -13 -9.5 -22.5t-22.5 -9.5t-22 9.5t-9 22.5v620q0 13 9 22t22 9q20 0 29 -20l258 -566l257 567q9 19 29 19q13 0 22 -9.5t9 -22.5
v-620z" />
    <glyph glyph-name="N" unicode="N" horiz-adv-x="722" 
d="M617 23q0 -13 -9 -21.5t-22 -9.5q-16 -1 -25 12l-393 552v-533q0 -13 -9.5 -22t-22.5 -9t-22 9t-9 22v620q0 13 9 22.5t23 9.5q16 0 25 -13q320 -458 392 -551v532q0 13 9 22.5t22 9.5t22.5 -9.5t9.5 -22.5v-620z" />
    <glyph glyph-name="O" unicode="O" horiz-adv-x="766" 
d="M716 333q0 -140 -95 -243t-237 -103t-238 103t-96 243t96 242.5t238 102.5t237 -102.5t95 -242.5zM651 333q0 117 -75 201.5t-192 84.5t-193 -85t-76 -201t76 -201.5t193 -85.5t192 85t75 202z" />
    <glyph glyph-name="P" unicode="P" horiz-adv-x="641" 
d="M611 477q0 -80 -52.5 -134.5t-144.5 -54.5h-244v-264q0 -13 -9.5 -22.5t-23.5 -9.5q-13 0 -22.5 9t-9.5 23v610q0 14 9.5 23t22.5 9h276q92 0 145 -55t53 -134zM545 477q0 54 -34 92t-91 38h-250v-259h250q57 0 91 37.5t34 91.5z" />
    <glyph glyph-name="Q" unicode="Q" horiz-adv-x="767" 
d="M717 333q0 -99 -51 -184t-136 -128l55 -103q3 -8 3 -15q0 -18 -16 -26q-6 -3 -14 -3q-18 0 -26 16l-58 109q-42 -12 -90 -12q-142 0 -238 103t-96 243t96 242.5t238 102.5t237.5 -102.5t95.5 -242.5zM651 333q0 117 -75 201.5t-192 84.5t-192.5 -85t-75.5 -201
q0 -117 75.5 -202t192.5 -85q34 0 62 7l-46 89q-4 8 -4 13q0 19 16 27q8 4 13 4q19 0 28 -17l50 -95q69 36 108.5 106t39.5 153z" />
    <glyph glyph-name="R" unicode="R" horiz-adv-x="696" 
d="M621 481q0 -66 -38 -114t-101 -60l130 -270q3 -8 3 -14q0 -20 -17 -28q-6 -3 -13 -3q-19 0 -29 18l-140 288h-245v-274q0 -13 -10 -22.5t-24 -9.5q-13 0 -22.5 9t-9.5 23v610q0 14 9.5 23t22.5 9h286q87 0 142.5 -50t55.5 -135zM555 480q0 56 -35 91.5t-90 35.5h-259
v-253h259q55 0 90 35.5t35 90.5z" />
    <glyph glyph-name="S" unicode="S" horiz-adv-x="630" 
d="M570 172q0 -90 -70.5 -137.5t-178.5 -47.5q-67 0 -146 26.5t-121 74.5q-9 10 -9 22q0 11 7 19q10 10 21 10t21 -8q99 -85 228 -85q75 0 128.5 30t53.5 93q0 53 -71 91q-36 19 -158 64q-44 16 -70 28t-58 34t-47.5 52.5t-15.5 70.5q0 84 67 126.5t172 42.5q61 0 124.5 -20
t104.5 -51q13 -10 13 -25q0 -8 -5 -16q-10 -13 -24 -13q-9 0 -17 5q-96 61 -196 61q-75 0 -124.5 -27.5t-49.5 -82.5q0 -18 5.5 -33t22 -29t28 -22.5t43 -21.5t46.5 -18.5l57 -20.5q9 -3 14 -5q67 -23 107.5 -44t69 -57.5t28.5 -85.5z" />
    <glyph glyph-name="T" unicode="T" horiz-adv-x="587" 
d="M567 636q0 -13 -9 -21.5t-22 -8.5h-210v-581q0 -13 -10 -23t-23 -10t-23 10t-10 23v581h-210q-13 0 -21.5 8.5t-8.5 21.5t8.5 21.5t21.5 8.5h486q13 0 22 -8.5t9 -21.5z" />
    <glyph glyph-name="U" unicode="U" horiz-adv-x="699" 
d="M609 264q0 -128 -69 -202.5t-190 -74.5t-190.5 75t-69.5 202v378q0 14 10 23.5t23 9.5t22.5 -9.5t9.5 -23.5v-390q0 -94 51 -150t144 -56t143 56t50 150v390q0 13 10 23t24 10q13 0 22.5 -9.5t9.5 -23.5v-378z" />
    <glyph glyph-name="V" unicode="V" horiz-adv-x="655" 
d="M633 644q0 -6 -3 -12l-274 -622q-8 -18 -28 -18q-22 0 -29 18l-275 622q-2 4 -2 12q0 12 8.5 21.5t21.5 9.5q20 0 28 -18l247 -566l248 566q8 18 28 18q14 0 22 -9t8 -22z" />
    <glyph glyph-name="W" unicode="W" horiz-adv-x="865" 
d="M840 646q0 -5 -1 -8q-3 -12 -98 -308l-102 -317q-6 -21 -29 -21q-22 0 -29 22l-148 524l-148 -524q-7 -22 -29 -22q-23 0 -30 22l-101.5 316t-98.5 309q0 1 -0.5 3t-0.5 3q-1 10 5 18.5t15 10.5q4 1 11 1q23 0 29 -21l170 -529l149 529q6 21 28 21q24 0 29 -21l150 -530
l170 530q6 21 29 21q5 0 8 -1q22 -7 22 -28z" />
    <glyph glyph-name="X" unicode="X" horiz-adv-x="640" 
d="M585 21q0 -14 -11 -23q-8 -6 -19 -6q-16 0 -25 12l-210 281l-210 -281q-9 -12 -25 -12q-9 0 -18 7q-12 10 -12 23q0 10 7 19l220 294l-218 292q-7 9 -7 18q0 15 14 25q8 5 16 5q16 0 25 -12l208 -278l208 278q9 12 23 12q11 0 20 -7q11 -9 11 -24q0 -10 -6 -18l-218 -291
l221 -294q6 -9 6 -20z" />
    <glyph glyph-name="Y" unicode="Y" horiz-adv-x="577" 
d="M557 645q0 -11 -6 -18l-229 -310v-292q0 -13 -10 -23t-24 -10q-13 0 -22.5 9.5t-9.5 23.5v292l-230 310q-6 7 -6 18q0 15 12 24q7 6 18 6q15 0 24 -12l214 -292l215 292q9 12 24 12q10 0 19 -7q11 -9 11 -23z" />
    <glyph glyph-name="Z" unicode="Z" horiz-adv-x="635" 
d="M575 30q0 -12 -8.5 -21t-21.5 -9h-453q-13 0 -19 5q-13 10 -13 26q0 11 6 18l410 557h-369q-13 0 -22 9t-9 21q0 13 9 21.5t22 8.5h431q13 0 21.5 -8.5t8.5 -21.5q0 -12 -6 -19l-411 -557h394q12 0 21 -9t9 -21z" />
    <glyph glyph-name="bracketleft" unicode="[" horiz-adv-x="329" 
d="M264 -108q0 -10 -6.5 -17t-16.5 -7h-108q-11 0 -19.5 8.5t-8.5 19.5v779q0 11 8.5 19.5t19.5 8.5h108q10 0 16.5 -6.5t6.5 -16.5t-6.5 -17t-16.5 -7h-81v-741h81q10 0 16.5 -6.5t6.5 -16.5z" />
    <glyph glyph-name="backslash" unicode="\" horiz-adv-x="392" 
d="M347 -81q0 -18 -17 -23q-3 -1 -9 -1q-16 0 -21 16l-254 782q-1 3 -1 8q0 18 16 23q2 1 7 1q19 0 24 -17l254 -782q1 -3 1 -7z" />
    <glyph glyph-name="bracketright" unicode="]" horiz-adv-x="329" 
d="M224 -104q0 -11 -8.5 -19.5t-19.5 -8.5h-107q-10 0 -17 7t-7 17t7 16.5t17 6.5h80v741h-80q-10 0 -17 7t-7 17t7 16.5t17 6.5h107q11 0 19.5 -8.5t8.5 -19.5v-779z" />
    <glyph glyph-name="asciicircum" unicode="^" horiz-adv-x="461" 
d="M416 380q0 -13 -12 -20q-6 -3 -11 -3q-14 0 -20 11l-143 241l-142 -241q-6 -11 -20 -11q-6 0 -12 3q-11 6 -11 20q0 6 3 12l162 274q7 11 20 11t20 -11l162 -274q4 -8 4 -12z" />
    <glyph glyph-name="underscore" unicode="_" horiz-adv-x="427" 
d="M428 -48h-429v35h429v-35z" />
    <glyph glyph-name="grave" unicode="`" horiz-adv-x="365" 
d="M270 520q0 -5 -4 -13q-6 -10 -20 -10q-8 0 -12 3l-129 93q-10 7 -10 19q0 7 5 14q6 9 18 9q9 0 14 -4l129 -92q9 -7 9 -19z" />
    <glyph glyph-name="a" unicode="a" horiz-adv-x="512" 
d="M442 22q0 -13 -8 -21.5t-21 -8.5t-22 8.5t-9 21.5v27q-20 -26 -61 -43.5t-88 -17.5q-76 0 -127 41t-51 104q0 67 50 105.5t128 38.5q101 0 149 -51v52q-1 64 -34 90.5t-106 26.5q-65 0 -139 -31q-6 -3 -11 -3q-16 0 -22 14q-3 5 -3 11q0 14 14 22q64 38 166 38
q195 0 195 -172v-252zM382 134q0 50 -38 73t-97 23q-57 0 -95 -24t-38 -73q0 -48 39 -73t91 -25q57 0 97.5 28t40.5 71z" />
    <glyph glyph-name="b" unicode="b" horiz-adv-x="599" 
d="M559 217q0 -98 -65 -163.5t-160 -65.5q-57 0 -103.5 25.5t-70.5 69.5v-61q0 -13 -8.5 -21.5t-21.5 -8.5t-21.5 8.5t-8.5 21.5v623q0 13 8.5 21.5t21.5 8.5t21.5 -8.5t8.5 -21.5v-294q24 42 71 68.5t103 26.5q95 0 160 -65.5t65 -163.5zM498 217q0 78 -47.5 127t-120.5 49
t-121.5 -51t-48.5 -125t48.5 -125t121.5 -51t120.5 49t47.5 127z" />
    <glyph glyph-name="c" unicode="c" horiz-adv-x="488" 
d="M454 92q0 -10 -6 -17q-31 -39 -78.5 -63t-100.5 -24q-96 0 -162.5 65.5t-66.5 163.5t66.5 163.5t162.5 65.5q89 0 158 -63q9 -9 9 -19q0 -8 -6 -16q-8 -9 -19 -9q-9 0 -16 5q-65 50 -126 50q-72 0 -120.5 -51.5t-48.5 -125.5t48.5 -125.5t120.5 -51.5q79 0 142 69
q7 8 18 8t18 -7t7 -18z" />
    <glyph glyph-name="d" unicode="d" horiz-adv-x="599" 
d="M499 22q0 -13 -8.5 -21.5t-21.5 -8.5t-21.5 8.5t-8.5 21.5v61q-24 -44 -70.5 -69.5t-103.5 -25.5q-95 0 -160 65.5t-65 163.5t65 163.5t160 65.5q56 0 103 -26.5t71 -68.5v294q0 13 8.5 21.5t21.5 8.5t21.5 -8.5t8.5 -21.5v-623zM439 217q0 74 -48.5 125t-121.5 51
t-120.5 -49t-47.5 -127t47.5 -127t120.5 -49t121.5 51t48.5 125z" />
    <glyph glyph-name="e" unicode="e" horiz-adv-x="517" 
d="M482 222q0 -21 -23 -21v0v0v0v0v0v0v0v0v0v0v0v0v0v0v0v0v0v0v0v0v0h-1v0v0v0v0v0v0v0v0v0h-1v0v0v0v0v0v0h-1v0v0v0v0h-1v0v0v0v0h-1v0v0v0h-1v0v0v0h-1v0v0h-1v0v0h-1v0v0h-1v0v0h-1v0v0h-1v0h-1v0v0h-1v0h-1v0h-1v0h-1v0h-1v0h-1v0h-1v0h-1v0h-1v0h-1v0h-1v0h-1v0h-1
v0h-1v0h-1v0h-1h-1v0h-1v0h-1v0h-1v0h-1h-1v0h-1h-1v0h-1h-1v0h-1h-1v0h-1h-1v0h-1h-1h-1v0h-1h-1h-1h-1v0h-1h-1h-1h-1h-1h-1h-1h-1v0h-1h-1h-1h-1h-1h-1h-1h-1h-1h-1h-1h-1h-1h-1h-1h-1h-1h-1h-1h-1h-1h-1h-1h-1h-1h-1h-1h-1h-1h-1h-1h-1h-1h-1h-1h-1h-1h-1h-1h-1h-1h-1
h-1h-1h-1h-1h-1h-1h-1h-1h-1h-1h-1h-1h-1h-1h-1h-1h-1h-1h-1h-1h-1h-1h-1h-1h-1h-1h-1h-1h-1h-1h-1h-1h-1h-1h-1h-1h-1h-1h-1h-1h-1h-1h-1h-1h-1h-1h-1h-1h-1h-1h-1h-1h-1h-1h-1h-1h-1h-1h-1h-1h-1h-1h-1h-1h-1h-1h-1h-1h-1h-1h-1h-1h-1h-1h-1h-1h-1h-1h-1h-1h-1h-1h-1h-1
h-1h-1h-1h-1h-1h-1h-1h-1h-1h-1h-1h-1h-1h-1h-1h-1h-1h-1h-1h-1h-1h-1h-1h-1h-1h-1h-1h-1h-1h-1h-1h-1h-1h-1h-1h-1h-1h-1h-1h-1h-1h-1h-1h-1h-1h-1h-1h-1h-1h-1h-1h-1h-1h-1h-1h-1h-1h-1h-1h-1h-1h-1h-1h-1h-1h-1h-1h-1h-1h-1h-1h-1h-1h-1h-1h-1h-1h-1h-1h-1h-1h-1h-1h-1
h-1h-1h-1h-1h-1h-1h-1h-1h-1h-1h-1h-1h-1h-1h-1h-1h-1h-1h-1h-1h-1h-1h-1h-1h-1h-1h-1h-1h-1h-1h-1h-1h-1h-1h-1h-1h-1h-1h-1h-1h-1h-1h-1h-1h-1h-1h-1h-1h-1h-1h-1h-1h-1h-1h-1h-1h-1h-1h-1h-1h-1h-1h-1h-1h-1h-1h-1h-1h-1h-1h-1h-1h-1h-1h-1h-1h-1h-1h-1h-10
q2 -68 50.5 -115t117.5 -47q85 0 148 70q9 10 19 10q9 0 16 -6q9 -8 9 -19q0 -8 -6 -16q-28 -37 -78.5 -63.5t-109.5 -26.5q-95 0 -161.5 66.5t-66.5 162.5t64 162.5t159 66.5q93 0 156 -65.5t63 -158.5zM422 246q-7 64 -50.5 106.5t-108.5 42.5t-109.5 -42t-51.5 -107h320z
" />
    <glyph glyph-name="f" unicode="f" horiz-adv-x="364" 
d="M344 649q0 -11 -7 -18t-18 -7h-28q-55 0 -75 -24t-20 -84v-83h92q10 0 17.5 -7.5t7.5 -17.5t-7.5 -17.5t-17.5 -7.5h-92v-361q0 -13 -8.5 -21.5t-21.5 -8.5t-21.5 8.5t-8.5 21.5v361h-67q-10 0 -17 7t-7 18t7 18t17 7h67v76q0 85 34.5 125t117.5 40h31q11 0 18 -7t7 -18z
" />
    <glyph glyph-name="g" unicode="g" horiz-adv-x="588" 
d="M498 36q0 -102 -60.5 -166.5t-175.5 -64.5q-97 0 -168 30q-17 8 -17 22q0 4 2 10q7 17 22 17q4 0 10 -2q72 -26 149 -26q88 0 133.5 47t45.5 124v3v3v3v3v3v3v3v3v3v3v3v3v3v3v3v2v3v9q-23 -43 -70 -69t-104 -26q-93 0 -159 65.5t-66 162.5q0 95 65.5 161t159.5 66
q56 0 102 -26.5t71 -70.5v62q0 13 8.5 22t21.5 9t21.5 -9t8.5 -22v-375zM439 219q0 73 -49 123.5t-121 50.5t-120.5 -50.5t-48.5 -123.5t48.5 -124t120.5 -51t121 51t49 124z" />
    <glyph glyph-name="h" unicode="h" horiz-adv-x="605" 
d="M510 22q0 -13 -8 -21.5t-21 -8.5t-22 8.5t-9 21.5v224q0 66 -34.5 106.5t-103.5 40.5q-64 0 -108 -44t-44 -105v-222q0 -13 -8.5 -21.5t-21.5 -8.5t-21.5 8.5t-8.5 21.5v623q0 13 8.5 21.5t21.5 8.5q12 0 21 -8.5t9 -21.5v-283q24 38 69 61t95 23q87 0 136.5 -56.5
t49.5 -144.5v-223z" />
    <glyph glyph-name="i" unicode="i" horiz-adv-x="272" 
d="M172 594q0 -15 -10 -25.5t-25 -10.5t-26 10.5t-11 25.5t11 25.5t26 10.5t25 -10.5t10 -25.5zM166 22q0 -13 -8 -21.5t-21 -8.5t-22 8.5t-9 21.5v390q0 13 9 21.5t22 8.5t21 -8.5t8 -21.5v-390z" />
    <glyph glyph-name="j" unicode="j" horiz-adv-x="279" 
d="M189 594q0 -15 -10.5 -25.5t-25.5 -10.5t-26 10.5t-11 25.5t11 25.5t26 10.5t25.5 -10.5t10.5 -25.5zM182 -24q0 -84 -35.5 -127.5t-114.5 -43.5h-32q-11 0 -18 7t-7 17q0 11 7.5 18.5t17.5 7.5h28q54 0 74 28t20 89v440q0 13 9 21.5t22 8.5t21 -8.5t8 -21.5v-436z" />
    <glyph glyph-name="k" unicode="k" horiz-adv-x="521" 
d="M461 18q0 -20 -22 -25q-1 0 -3.5 -0.5t-3.5 -0.5q-12 0 -19 9l-190 221l-64 -51v-149q0 -12 -8.5 -21t-20.5 -9t-21 9t-9 21v623q0 12 8.5 21t21.5 9q12 0 20.5 -9t8.5 -21v-404l246 195q7 6 17 6q15 0 22 -10q6 -8 6 -18q0 -13 -11 -21l-172 -138l188 -218q6 -7 6 -19z
" />
    <glyph glyph-name="l" unicode="l" horiz-adv-x="260" 
d="M160 21q0 -13 -8 -21t-21 -8t-22 8t-9 21v624q0 13 9 21.5t22 8.5t21 -8.5t8 -21.5v-624z" />
    <glyph glyph-name="m" unicode="m" horiz-adv-x="906" 
d="M811 22q0 -13 -8.5 -21.5t-21.5 -8.5t-21.5 8.5t-8.5 21.5v224q0 147 -127 147q-60 0 -99 -38.5t-39 -98.5v-234q0 -13 -8.5 -21.5t-21.5 -8.5t-21.5 8.5t-8.5 21.5v224q0 66 -32 106.5t-95 40.5t-101 -43t-38 -106v-222q0 -13 -8.5 -21.5t-21.5 -8.5t-21.5 8.5
t-8.5 21.5v390q0 13 8.5 21.5t21.5 8.5q12 0 21 -8.5t9 -21.5v-46q52 80 151 80q114 0 156 -100q20 47 66.5 73.5t101.5 26.5q85 0 130.5 -55t45.5 -144v-225z" />
    <glyph glyph-name="n" unicode="n" horiz-adv-x="606" 
d="M511 22q0 -13 -9 -21.5t-22 -8.5t-21 8.5t-8 21.5v224q0 65 -35.5 106t-103.5 41q-64 0 -108 -44t-44 -105v-222q0 -13 -8.5 -21.5t-21.5 -8.5t-21.5 8.5t-8.5 21.5v390q0 13 8 21.5t21 8.5q12 0 21 -8.5t9 -21.5v-48q25 37 70 59.5t95 22.5q85 0 136 -57t51 -144v-223z
" />
    <glyph glyph-name="o" unicode="o" horiz-adv-x="538" 
d="M498 217q0 -95 -67 -162t-162 -67t-162 67t-67 162t67 162t162 67t162 -67t67 -162zM439 217q0 73 -49 124.5t-121 51.5t-120.5 -51.5t-48.5 -124.5t48.5 -124.5t120.5 -51.5t121 51.5t49 124.5z" />
    <glyph glyph-name="p" unicode="p" horiz-adv-x="598" 
d="M558 217q0 -98 -64.5 -163.5t-159.5 -65.5q-56 0 -101.5 25t-72.5 70v-248q0 -13 -8.5 -21.5t-21.5 -8.5t-21.5 8.5t-8.5 21.5v577q0 13 8.5 21.5t21.5 8.5t21.5 -8.5t8.5 -21.5v-61q58 95 174 95q95 0 159.5 -65.5t64.5 -163.5zM498 217q0 77 -48 126.5t-121 49.5
q-72 0 -120.5 -50.5t-48.5 -125.5t48.5 -125.5t120.5 -50.5q73 0 121 49.5t48 126.5z" />
    <glyph glyph-name="q" unicode="q" horiz-adv-x="598" 
d="M498 -165q0 -13 -8.5 -21.5t-21.5 -8.5t-21.5 8.5t-8.5 21.5v248q-27 -45 -72.5 -70t-101.5 -25q-95 0 -159.5 65.5t-64.5 163.5t64.5 163.5t159.5 65.5q116 0 174 -95v61q0 13 8.5 21.5t21.5 8.5t21.5 -8.5t8.5 -21.5v-577zM438 217q0 75 -48.5 125.5t-120.5 50.5
q-73 0 -121 -49.5t-48 -126.5t48 -126.5t121 -49.5q72 0 120.5 50.5t48.5 125.5z" />
    <glyph glyph-name="r" unicode="r" horiz-adv-x="374" 
d="M354 419q0 -11 -7.5 -18.5t-18.5 -7.5q-68 0 -118.5 -43t-50.5 -110v-218q0 -12 -9 -21t-21 -9t-20.5 8.5t-8.5 21.5v390q0 13 8 21.5t21 8.5q12 0 21 -8.5t9 -21.5v-51q54 85 169 85q11 0 18.5 -8t7.5 -19z" />
    <glyph glyph-name="s" unicode="s" horiz-adv-x="478" 
d="M418 112q0 -55 -49.5 -89.5t-130.5 -34.5q-96 0 -173 57q-10 7 -10 19q0 9 4 14q7 10 19 10q9 0 14 -4q67 -47 143 -47q52 0 88.5 18.5t36.5 55.5q0 29 -31.5 48.5t-115.5 47.5q-70 24 -105 51t-35 74q0 52 47.5 83t119.5 31q88 0 157 -44q12 -8 12 -21q0 -6 -3 -12
q-6 -12 -21 -12q-7 0 -13 3q-58 36 -128 36q-52 0 -83 -16.5t-31 -48.5t25.5 -47t106.5 -42q80 -26 118 -55t38 -75z" />
    <glyph glyph-name="t" unicode="t" horiz-adv-x="322" 
d="M292 408q0 -10 -7 -17.5t-18 -7.5h-89v-362q0 -13 -8 -21t-21 -8t-22 8t-9 21v362h-79q-10 0 -17 7t-7 18t7 18t17 7h79v147q0 13 9 21.5t22 8.5t21 -8.5t8 -21.5v-147h89q11 0 18 -7.5t7 -17.5z" />
    <glyph glyph-name="u" unicode="u" horiz-adv-x="606" 
d="M506 22q0 -13 -8.5 -21.5t-21.5 -8.5q-12 0 -21 8.5t-9 21.5v48q-25 -38 -69.5 -60t-94.5 -22q-85 0 -136 57t-51 144v223q0 13 8.5 21.5t21.5 8.5t21.5 -8.5t8.5 -21.5v-224q0 -65 35.5 -106t103.5 -41q64 0 108 44t44 105v222q0 13 8 21.5t21 8.5t22 -8.5t9 -21.5v-390
z" />
    <glyph glyph-name="v" unicode="v" horiz-adv-x="459" 
d="M429 414q0 -5 -2 -11l-172 -395q-6 -16 -25 -16q-17 0 -24 16l-173 395q-3 6 -3 12q0 18 17 25q3 2 11 2q18 0 24 -16l148 -341l148 341q6 16 25 16q4 0 10 -2q16 -6 16 -26z" />
    <glyph glyph-name="w" unicode="w" horiz-adv-x="699" 
d="M654 414q0 -3 -2 -9l-148 -395q-7 -18 -26 -18q-18 0 -25 18l-103 319l-103 -319q-7 -18 -25 -18q-19 0 -26 18l-148 395q0 1 -1 3q-2 4 -2 6q0 19 18 26q6 2 10 2q18 0 25 -17l122 -327l105 326q5 18 25 18q18 0 25 -18l105 -326l122 327q6 17 25 17q4 0 10 -2
q17 -7 17 -26z" />
    <glyph glyph-name="x" unicode="x" horiz-adv-x="467" 
d="M412 19q0 -15 -9 -22q-6 -5 -17 -5q-14 0 -22 11l-130 172l-130 -172q-8 -11 -21 -11q-11 0 -17 5q-11 8 -11 22q0 9 6 16l140 184l-138 180q-5 6 -5 16q0 13 11 21q10 6 16 6q13 0 21 -11l128 -168l128 168q8 11 21 11q6 0 16 -6q11 -8 11 -21q0 -10 -5 -16l-137 -180
l139 -184q5 -6 5 -16z" />
    <glyph glyph-name="y" unicode="y" horiz-adv-x="458" 
d="M428 415q0 -7 -2 -11l-172 -394q-31 -70 -83 -124t-122 -79q-6 -2 -9 -2q-10 0 -17 7.5t-8 17.5q-2 19 19 26q111 40 165 164l-168 385q-2 6 -2 8q-2 19 17 27q4 2 11 2q18 0 24 -16l148 -341l147 341q6 16 26 16q3 0 9 -2q17 -7 17 -25z" />
    <glyph glyph-name="z" unicode="z" horiz-adv-x="464" 
d="M419 405q0 -9 -6 -16l-277 -339h256q10 0 17.5 -7t7.5 -18t-7.5 -18t-17.5 -7h-308q-29 0 -29 26q0 10 6 18l277 339h-256q-11 0 -18.5 7.5t-7.5 17.5t7.5 17.5t18.5 7.5h310q12 0 19.5 -8t7.5 -20z" />
    <glyph glyph-name="braceleft" unicode="{" horiz-adv-x="313" 
d="M278 -119q0 -8 -6 -13.5t-14 -5.5h-47q-43 0 -60 22.5t-17 63.5v225q0 90 -93 90q-12 0 -15 3q-11 3 -11 16q0 8 5.5 14t13.5 6h10q90 2 90 90v225q0 41 17 63.5t60 22.5h47q8 0 14 -5.5t6 -13.5t-6 -14t-14 -6h-29q-41 0 -41 -48v-216q0 -54 -29.5 -86t-84.5 -32
q55 0 84.5 -32t29.5 -85v-216q0 -48 41 -48h29q8 0 14 -6t6 -14z" />
    <glyph glyph-name="bar" unicode="|" horiz-adv-x="253" 
d="M148 -136q0 -9 -6 -15.5t-15 -6.5t-15.5 6.5t-6.5 15.5v889q0 9 6.5 15.5t15.5 6.5t15 -6.5t6 -15.5v-889z" />
    <glyph glyph-name="braceright" unicode="}" horiz-adv-x="313" 
d="M298 282q0 -8 -5.5 -13.5t-13.5 -5.5h-10q-90 -2 -90 -90v-225q0 -41 -17 -63.5t-60 -22.5h-48q-19 0 -19 19q0 8 5.5 14t13.5 6h30q40 0 40 48v216q0 53 29.5 85t84.5 32q-55 0 -84.5 32t-29.5 86v216q0 48 -40 48h-30q-8 0 -13.5 6t-5.5 14q0 19 19 19h48
q43 0 60 -22.5t17 -63.5v-225q0 -90 93 -90q8 0 14 -3q12 -3 12 -17z" />
    <glyph glyph-name="asciitilde" unicode="~" horiz-adv-x="515" 
d="M470 336q0 -7 -3 -13q-16 -29 -50 -51.5t-70 -22.5q-34 0 -91 33.5t-88 33.5q-10 0 -18 -1.5t-16 -5t-13 -6t-12.5 -9t-10 -8.5t-10.5 -10l-9 -9q-7 -7 -15 -7q-7 0 -12 4q-7 7 -7 14t4 14q48 67 118 67q38 0 97 -34t83 -34q22 0 41 11t26 18.5t22 25.5q6 8 15 8
q8 0 12 -4q7 -6 7 -14z" />
    <glyph glyph-name="exclamdown" unicode="&#xa1;" horiz-adv-x="299" 
d="M194 630q0 -19 -12.5 -32t-31.5 -13t-32 13t-13 32t13 32t32 13t31.5 -13t12.5 -32zM180 23q0 -13 -9 -22t-22 -9t-21.5 9t-8.5 22v193q7 120 15 288q0 15 15 15q16 0 16 -15l15 -288v-193z" />
    <glyph glyph-name="cent" unicode="&#xa2;" horiz-adv-x="488" 
d="M454 92q0 -10 -6 -17q-29 -37 -74.5 -61t-95.5 -26v-60q0 -14 -14 -14t-14 14v61q-89 7 -149.5 71.5t-60.5 156.5t60.5 156.5t149.5 71.5v61q0 14 14 14t14 -14v-60q83 -3 149 -63q9 -9 9 -19q0 -8 -6 -16q-8 -9 -20 -9q-9 0 -15 5q-60 47 -117 50v-354q75 4 133 69
q8 8 17 8q11 0 18 -7q8 -8 8 -18zM250 41v352q-65 -7 -107.5 -57.5t-42.5 -118.5t42.5 -118.5t107.5 -57.5z" />
    <glyph glyph-name="sterling" unicode="&#xa3;" horiz-adv-x="696" 
d="M641 625q0 -2 -2 -8q-7 -18 -25 -18q-7 0 -10 1q-84 23 -153 23q-84 0 -130 -47t-46 -131v-93h177q12 0 20.5 -8t8.5 -20t-8.5 -20.5t-20.5 -8.5h-177v-238h272q12 0 20.5 -8t8.5 -20t-8.5 -20.5t-20.5 -8.5h-439q-12 0 -20 8.5t-8 20.5t8 20t20 8h104v238h-73
q-12 0 -20 8.5t-8 20.5t8 20t20 8h73v92q0 106 64 170t170 64q104 0 176 -26q19 -6 19 -27z" />
    <glyph glyph-name="currency" unicode="&#xa4;" horiz-adv-x="767" 
d="M707 142q0 -10 -6 -19q-100 -136 -262 -136q-120 0 -209.5 76.5t-115.5 190.5h-82q-9 0 -15.5 6.5t-6.5 15.5t6.5 15.5t15.5 6.5h75q-1 12 -1 35t1 34h-75q-9 0 -15.5 7t-6.5 16t6.5 15t15.5 6h82q25 115 114.5 191t210.5 76q140 0 227 -95q8 -8 8 -22q0 -12 -7 -19
q-9 -9 -21 -9q-10 0 -20 8q-46 38 -88.5 58t-98.5 20q-96 0 -165.5 -58.5t-92.5 -149.5h141q9 0 15.5 -6t6.5 -15t-6.5 -16t-15.5 -7h-149q-2 -22 -2 -34q0 -11 2 -35h149q9 0 15.5 -6.5t6.5 -15.5t-6.5 -15.5t-15.5 -6.5h-141q24 -90 93 -149t165 -59q72 0 121.5 29.5
t95.5 85.5q9 10 22 10q12 0 19 -7q10 -9 10 -22z" />
    <glyph glyph-name="yen" unicode="&#xa5;" horiz-adv-x="578" 
d="M558 645q0 -11 -6 -18l-198 -267h88q10 0 16.5 -6.5t6.5 -16.5t-6.5 -16.5t-16.5 -6.5h-120v-63h120q10 0 16.5 -6.5t6.5 -16.5t-6.5 -16.5t-16.5 -6.5h-120v-180q0 -13 -10 -23t-23 -10t-23 10t-10 23v180h-119q-10 0 -17 6.5t-7 16.5t7 16.5t17 6.5h119v63h-119
q-10 0 -17 6.5t-7 16.5t7 16.5t17 6.5h87l-197 267q-7 9 -7 18q0 15 12 24q7 6 18 6q16 0 25 -12l214 -292l214 292q9 12 24 12q11 0 20 -7q11 -9 11 -23z" />
    <glyph glyph-name="brokenbar" unicode="&#xa6;" horiz-adv-x="253" 
d="M148 361q0 -9 -6.5 -15t-15.5 -6t-15 6t-6 15v392q0 9 6 15.5t15 6.5t15.5 -6.5t6.5 -15.5v-392zM148 -136q0 -9 -6.5 -15.5t-15.5 -6.5t-15 6.5t-6 15.5v393q0 9 6 15t15 6t15.5 -6t6.5 -15v-393z" />
    <glyph glyph-name="section" unicode="&#xa7;" horiz-adv-x="595" 
d="M530 -49q0 -74 -69.5 -113.5t-158.5 -39.5q-63 0 -127 20t-102 58q-8 8 -8 18q0 8 6 16q8 8 17 8t16 -6q81 -64 195 -64q28 0 55 4.5t54.5 15t44 32t16.5 51.5q0 40 -39 67.5t-95 45t-112 37.5t-95 57t-39 91q0 42 29.5 74.5t69 46.5t78.5 12q-3 1 -26 10.5t-28.5 12
l-25.5 11.5t-27 14.5t-22 15.5t-21 19l-14 21t-11 25.5t-3 28.5q0 49 37 82t82 44.5t93 11.5q54 0 112.5 -14.5t95.5 -45.5q10 -9 10 -22q0 -8 -4 -13q-8 -11 -20 -11q-7 0 -15 5q-35 25 -83.5 38t-90.5 13q-25 0 -50 -4t-51.5 -13t-43 -28t-16.5 -46q0 -17 11 -33.5
t25 -27.5t40 -23t42.5 -18.5t47.5 -17l40 -13.5q46 -17 68 -26.5t53 -29t44.5 -44.5t13.5 -59q0 -57 -48.5 -95t-115.5 -45q83 -32 124 -65.5t41 -88.5zM467 246q0 35 -30 58t-64.5 30.5t-68.5 7.5q-35 0 -67 -7t-59 -29.5t-27 -58.5q0 -51 50.5 -79.5t104.5 -28.5
q70 0 115.5 28t45.5 79z" />
    <glyph glyph-name="dieresis" unicode="&#xa8;" horiz-adv-x="389" 
d="M319 545q0 -15 -10 -25.5t-25 -10.5t-25 10.5t-10 25.5t10 25t25 10t25 -10t10 -25zM140 545q0 -15 -10 -25.5t-25 -10.5t-25 10.5t-10 25.5t10 25t25 10t25 -10t10 -25z" />
    <glyph glyph-name="copyright" unicode="&#xa9;" horiz-adv-x="791" 
d="M741 333q0 -143 -101 -244.5t-244 -101.5t-244.5 101.5t-101.5 244.5t101.5 244t244.5 101t244 -101t101 -244zM707 333q0 130 -90.5 221t-220.5 91t-220 -91t-90 -221t90 -221.5t220 -91.5t220.5 91.5t90.5 221.5zM532 247q0 -5 -3 -10q-41 -65 -123 -65
q-66 0 -111.5 46.5t-45.5 112.5t45.5 113.5t111.5 47.5q71 0 110 -50q2 -4 2 -7q0 -7 -4 -12q-5 -7 -13 -7q-5 0 -9 4q-43 37 -86 37q-51 0 -84.5 -37t-33.5 -89t33.5 -88.5t84.5 -36.5q61 0 96 52q5 6 11 6q9 0 14 -5q5 -4 5 -12z" />
    <glyph glyph-name="ordfeminine" unicode="&#xaa;" horiz-adv-x="412" 
d="M327 392q0 -9 -6 -15t-14 -6q-9 0 -15 6t-6 15v18q-30 -42 -101 -42q-47 0 -83.5 27.5t-36.5 72.5q0 48 34 73.5t86 25.5q68 0 101 -34v26q-1 45 -23.5 64.5t-71.5 19.5q-46 0 -95 -28q-4 -2 -5 -2q-9 0 -15 6q-4 4 -4 11q0 4 4 8q20 19 54 29.5t64 10.5q133 0 133 -120
v-166zM286 468q0 34 -26.5 50.5t-65.5 16.5q-90 0 -90 -67q0 -33 26.5 -51t61.5 -18q39 0 66.5 19.5t27.5 49.5z" />
    <glyph glyph-name="guillemotleft" unicode="&#xab;" horiz-adv-x="646" 
d="M511 16q0 -12 -8 -18q-6 -6 -16 -6q-9 0 -17 8l-180 185q-7 7 -7 17q0 8 7 17l180 186q7 7 16 7q10 0 17 -7q8 -6 8 -17q0 -7 -8 -17l-163 -169l164 -169q7 -9 7 -17zM303 16q0 -10 -7 -17t-17 -7q-9 0 -17 8l-180 185q-7 7 -7 17q0 8 7 17l180 186q6 7 17 7q9 0 16 -7
q8 -8 8 -17q0 -8 -7 -17l-164 -169l164 -169q7 -9 7 -17z" />
    <glyph glyph-name="logicalnot" unicode="&#xac;" horiz-adv-x="617" 
d="M512 20q0 -12 -8.5 -20t-20.5 -8t-19.5 8t-7.5 20v224h-384q-11 0 -19 7.5t-8 18.5t8 19.5t19 8.5h412q11 0 19.5 -8.5t8.5 -19.5v-250z" />
    <glyph glyph-name="registered" unicode="&#xae;" horiz-adv-x="792" 
d="M742 333q0 -143 -101 -244.5t-244 -101.5t-245 101.5t-102 244.5t102 244t245 101t244 -101t101 -244zM707 333q0 129 -89.5 220.5t-220.5 91.5t-221 -91.5t-90 -220.5t90 -221t221 -92t220.5 92t89.5 221zM525 399q0 -30 -17 -52t-45 -30l53 -106q6 -12 6 -15
q2 -13 -7 -19q-6 -5 -14 -3q-9 2 -13 10l-63 128h-105v-119q0 -19 -19 -19q-8 0 -14 5.5t-6 13.5v275q0 8 6 13.5t14 5.5h130q43 0 68.5 -24.5t25.5 -63.5zM487 399q0 22 -14.5 37.5t-38.5 15.5h-114v-106h114q24 0 38.5 15.5t14.5 37.5z" />
    <glyph glyph-name="macron" unicode="&#xaf;" horiz-adv-x="406" 
d="M331 548q0 -8 -5.5 -14t-13.5 -6h-218q-8 0 -13.5 6t-5.5 14q0 19 19 19h218q19 0 19 -19z" />
    <glyph glyph-name="macron" unicode="&#x2c9;" horiz-adv-x="406" 
d="M331 548q0 -8 -5.5 -14t-13.5 -6h-218q-8 0 -13.5 6t-5.5 14q0 19 19 19h218q19 0 19 -19z" />
    <glyph glyph-name="degree" unicode="&#xb0;" horiz-adv-x="397" 
d="M342 534q0 -59 -42 -101t-101 -42t-101.5 42t-42.5 101t42.5 101.5t101.5 42.5t101 -42.5t42 -101.5zM308 534q0 45 -31.5 77t-77.5 32q-45 0 -76.5 -32t-31.5 -77t31.5 -77t76.5 -32q46 0 77.5 32t31.5 77z" />
    <glyph glyph-name="plusminus" unicode="&#xb1;" horiz-adv-x="916" 
d="M801 314q0 -9 -7 -16l-267 -267q-6 -6 -16 -6t-16 6t-6 16t6 16l230 229h-588q-9 0 -15.5 6.5t-6.5 15.5t6.5 15.5t15.5 6.5h588l-230 229q-6 6 -6 15q0 10 6 16t16 6t16 -6l267 -267q7 -7 7 -15z" />
    <glyph glyph-name="twosuperior" unicode="&#xb2;" horiz-adv-x="666" 
d="M499 500h-166v166h166v-166zM666 333h-167v167h167v-167zM166 500h-166v166h166v-166zM333 333h-167v167h167v-167zM499 167h-166v166h166v-166zM666 0h-167v167h167v-167zM166 167h-166v166h166v-166zM333 0h-167v167h167v-167z" />
    <glyph glyph-name="threesuperior" unicode="&#xb3;" horiz-adv-x="666" 
d="M499 500h-166v166h166v-166zM666 333h-167v167h167v-167zM166 500h-166v166h166v-166zM333 333h-167v167h167v-167zM499 167h-166v166h166v-166zM666 0h-167v167h167v-167zM166 167h-166v166h166v-166zM333 0h-167v167h167v-167z" />
    <glyph glyph-name="acute" unicode="&#xb4;" horiz-adv-x="365" 
d="M270 612q0 -12 -10 -19l-129 -93q-4 -3 -12 -3q-14 0 -20 10q-4 8 -4 13q0 12 9 19l129 92q5 4 14 4q12 0 18 -9q5 -7 5 -14z" />
    <glyph glyph-name="mu" unicode="&#xb5;" horiz-adv-x="606" 
d="M506 22q0 -13 -8.5 -21.5t-21.5 -8.5q-12 0 -21 8.5t-9 21.5v48q-25 -38 -69.5 -60t-94.5 -22q-76 0 -127 48v-202q0 -13 -8.5 -21t-21.5 -8t-21.5 8t-8.5 21v578q0 13 8.5 21.5t21.5 8.5t21.5 -8.5t8.5 -21.5v-224q0 -65 35.5 -106t103.5 -41q64 0 108 44t44 105v222
q0 13 8 21.5t21 8.5t22 -8.5t9 -21.5v-390z" />
    <glyph glyph-name="mu" unicode="&#x3bc;" horiz-adv-x="606" 
d="M506 22q0 -13 -8.5 -21.5t-21.5 -8.5q-12 0 -21 8.5t-9 21.5v48q-25 -38 -69.5 -60t-94.5 -22q-76 0 -127 48v-202q0 -13 -8.5 -21t-21.5 -8t-21.5 8t-8.5 21v578q0 13 8.5 21.5t21.5 8.5t21.5 -8.5t8.5 -21.5v-224q0 -65 35.5 -106t103.5 -41q64 0 108 44t44 105v222
q0 13 8 21.5t21 8.5t22 -8.5t9 -21.5v-390z" />
    <glyph glyph-name="paragraph" unicode="&#xb6;" horiz-adv-x="513" 
d="M398 -183q0 -9 -6.5 -15t-15.5 -6t-15.5 6t-6.5 15v809h-78v-809q0 -9 -7 -15t-16 -6t-15 6t-6 15v531q-65 1 -111 47.5t-46 111.5q0 66 46.5 112.5t111.5 46.5h143q8 0 15 -6.5t7 -15.5v-827z" />
    <glyph glyph-name="periodcentered" unicode="&#xb7;" horiz-adv-x="297" 
d="M187 315q0 -16 -11.5 -27.5t-27.5 -11.5t-27 11.5t-11 27.5t11 27t27 11t27.5 -11t11.5 -27z" />
    <glyph glyph-name="periodcentered" unicode="&#x2219;" horiz-adv-x="297" 
d="M187 315q0 -16 -11.5 -27.5t-27.5 -11.5t-27 11.5t-11 27.5t11 27t27 11t27.5 -11t11.5 -27z" />
    <glyph glyph-name="cedilla" unicode="&#xb8;" horiz-adv-x="315" 
d="M250 -128q0 -41 -30.5 -65.5t-74.5 -24.5q-50 0 -74 17q-6 5 -6 11t4.5 10t10.5 3q54 -9 62 -9q29 0 47.5 14.5t18.5 41.5t-19.5 40t-48.5 13q-7 0 -21.5 -1.5t-17.5 -1.5q-13 0 -12 12q0 4 5 19.5l10 31.5t5 17h29l-20 -55q18 3 45 3q34 0 60.5 -21t26.5 -55z" />
    <glyph glyph-name="onesuperior" unicode="&#xb9;" horiz-adv-x="666" 
d="M499 500h-166v166h166v-166zM666 333h-167v167h167v-167zM166 500h-166v166h166v-166zM333 333h-167v167h167v-167zM499 167h-166v166h166v-166zM666 0h-167v167h167v-167zM166 167h-166v166h166v-166zM333 0h-167v167h167v-167z" />
    <glyph glyph-name="ordmasculine" unicode="&#xba;" horiz-adv-x="431" 
d="M371 523q0 -64 -45.5 -109.5t-110.5 -45.5t-110 45t-45 110t45 110t110 45t110.5 -45.5t45.5 -109.5zM330 523q0 49 -33 84t-82 35t-81.5 -35t-32.5 -84q0 -50 32.5 -85t81.5 -35t82 35.5t33 84.5z" />
    <glyph glyph-name="guillemotright" unicode="&#xbb;" horiz-adv-x="646" 
d="M571 202q0 -10 -7 -17l-180 -185q-8 -8 -17 -8q-10 0 -17 7t-7 17q0 8 7 17l164 169l-164 169q-7 9 -7 17q0 9 8 17q7 7 16 7q11 0 17 -7l180 -186q7 -9 7 -17zM363 202q0 -10 -7 -17l-180 -185q-8 -8 -17 -8q-10 0 -16 6q-8 6 -8 18q0 8 7 17l164 169l-164 169
q-7 9 -7 17q0 11 8 17q7 7 17 7q9 0 16 -7l180 -186q7 -9 7 -17z" />
    <glyph glyph-name="onequarter" unicode="&#xbc;" horiz-adv-x="666" 
d="M499 500h-166v166h166v-166zM666 333h-167v167h167v-167zM166 500h-166v166h166v-166zM333 333h-167v167h167v-167zM499 167h-166v166h166v-166zM666 0h-167v167h167v-167zM166 167h-166v166h166v-166zM333 0h-167v167h167v-167z" />
    <glyph glyph-name="onehalf" unicode="&#xbd;" horiz-adv-x="666" 
d="M499 500h-166v166h166v-166zM666 333h-167v167h167v-167zM166 500h-166v166h166v-166zM333 333h-167v167h167v-167zM499 167h-166v166h166v-166zM666 0h-167v167h167v-167zM166 167h-166v166h166v-166zM333 0h-167v167h167v-167z" />
    <glyph glyph-name="threequarters" unicode="&#xbe;" horiz-adv-x="666" 
d="M499 500h-166v166h166v-166zM666 333h-167v167h167v-167zM166 500h-166v166h166v-166zM333 333h-167v167h167v-167zM499 167h-166v166h166v-166zM666 0h-167v167h167v-167zM166 167h-166v166h166v-166zM333 0h-167v167h167v-167z" />
    <glyph glyph-name="questiondown" unicode="&#xbf;" horiz-adv-x="575" 
d="M343 630q0 -19 -13 -32t-32 -13t-32 13t-13 32t13 32t32 13t32 -13t13 -32zM495 72q2 -13 -11 -23q-33 -27 -86.5 -44.5t-107.5 -17.5q-86 0 -145.5 43.5t-59.5 117.5q0 65 59 131l100 113q29 34 29 97q0 12 7.5 20t19.5 8t20.5 -8t8.5 -20q0 -89 -41 -135
q-13 -15 -44 -46t-49 -51t-34 -50.5t-16 -58.5q0 -48 41.5 -77.5t100.5 -29.5q88 0 166 50q8 5 15 5q14 0 22 -11q5 -7 5 -13z" />
    <glyph glyph-name="Agrave" unicode="&#xc0;" 
d="M352 736q0 -4 -4 -12q-6 -11 -20 -11q-8 0 -13 4l-129 92q-9 6 -9 19q0 9 4 14q7 10 19 10q7 0 14 -5l128 -92q10 -8 10 -19zM655 23q0 -20 -18 -28q-6 -3 -12 -3q-21 0 -28 18l-84 185h-341l-83 -184q-9 -19 -28 -19q-7 0 -13 3q-18 8 -18 28q0 9 2 13l282 620
q8 19 29 19q19 0 28 -19l282 -620q2 -4 2 -13zM487 252l-144 320l-145 -320h289z" />
    <glyph glyph-name="Aacute" unicode="&#xc1;" 
d="M507 828q0 -13 -9 -19l-129 -92q-5 -4 -13 -4q-14 0 -20 11q-4 8 -4 12q0 11 10 19l128 92q7 5 14 5q12 0 19 -10q4 -5 4 -14zM655 23q0 -20 -18 -28q-6 -3 -12 -3q-21 0 -28 18l-84 185h-341l-83 -184q-9 -19 -28 -19q-7 0 -13 3q-18 8 -18 28q0 9 2 13l282 620
q8 19 29 19q19 0 28 -19l282 -620q2 -4 2 -13zM487 252l-144 320l-145 -320h289z" />
    <glyph glyph-name="Acircumflex" unicode="&#xc2;" 
d="M470 737q0 -3 -4 -11q-7 -10 -16 -10q-6 0 -12 3l-96 63l-96 -63q-4 -3 -11 -3q-10 0 -17 10q-3 6 -3 11q0 11 9 17l107 69q5 3 11 3q7 0 12 -4l106 -68q10 -7 10 -17zM655 23q0 -20 -18 -28q-6 -3 -12 -3q-21 0 -28 18l-84 185h-341l-83 -184q-9 -19 -28 -19q-7 0 -13 3
q-18 8 -18 28q0 9 2 13l282 620q8 19 29 19q19 0 28 -19l282 -620q2 -4 2 -13zM487 252l-144 320l-145 -320h289z" />
    <glyph glyph-name="Atilde" unicode="&#xc3;" 
d="M477 775q0 -2 -2 -8q-11 -20 -33 -33t-44 -13q-23 0 -54.5 18t-52.5 18q-10 0 -19 -4t-14 -8t-12 -11.5t-10 -9.5q-3 -3 -8 -3q-9 0 -14 5q-6 6 -6 12t3 10q11 20 34.5 34t45.5 14q24 0 56.5 -18.5t51.5 -18.5q11 0 19.5 5t19.5 16t12 11q2 2 8 2q8 0 14 -6q5 -5 5 -12z
M655 23q0 -20 -18 -28q-6 -3 -12 -3q-21 0 -28 18l-84 185h-341l-83 -184q-9 -19 -28 -19q-7 0 -13 3q-18 8 -18 28q0 9 2 13l282 620q8 19 29 19q19 0 28 -19l282 -620q2 -4 2 -13zM487 252l-144 320l-145 -320h289z" />
    <glyph glyph-name="Adieresis" unicode="&#xc4;" 
d="M463 755q0 -14 -10.5 -24t-24.5 -10t-23.5 10t-9.5 24t9.5 24.5t23.5 10.5t24.5 -10.5t10.5 -24.5zM290 755q0 -14 -10 -24t-24 -10t-24 10t-10 24t10 24.5t24 10.5t24 -10.5t10 -24.5zM655 23q0 -20 -18 -28q-6 -3 -12 -3q-21 0 -28 18l-84 185h-341l-83 -184
q-9 -19 -28 -19q-7 0 -13 3q-18 8 -18 28q0 9 2 13l282 620q8 19 29 19q19 0 28 -19l282 -620q2 -4 2 -13zM487 252l-144 320l-145 -320h289z" />
    <glyph glyph-name="Aring" unicode="&#xc5;" 
d="M436 796q0 -39 -27 -66.5t-66 -27.5t-66.5 27.5t-27.5 66.5t27.5 66t66.5 27t66 -27t27 -66zM408 796q0 27 -18.5 46t-46.5 19t-46.5 -19t-18.5 -46t19 -46.5t46 -19.5t46 19.5t19 46.5zM655 23q0 -20 -18 -28q-6 -3 -12 -3q-21 0 -28 18l-84 185h-341l-83 -184
q-9 -19 -28 -19q-7 0 -13 3q-18 8 -18 28q0 9 2 13l282 620q8 19 29 19q19 0 28 -19l282 -620q2 -4 2 -13zM487 252l-144 320l-145 -320h289z" />
    <glyph glyph-name="AE" unicode="&#xc6;" horiz-adv-x="1005" 
d="M965 30q0 -13 -8.5 -21.5t-21.5 -8.5h-399q-14 0 -23.5 10t-9.5 23v156h-279l-137 -186q-8 -11 -23 -11q-12 0 -18 5q-11 8 -11 24q0 12 5 18l455 616q8 11 24 11h401q13 0 21.5 -8t8.5 -21q0 -12 -9 -21.5t-21 -9.5h-351v-228h198q13 0 21.5 -9t8.5 -22t-8.5 -21
t-21.5 -8h-198v-258h366q13 0 21.5 -8.5t8.5 -21.5zM503 244v323l-237 -323h237z" />
    <glyph glyph-name="Ccedilla" unicode="&#xc7;" horiz-adv-x="712" 
d="M652 143q0 -12 -7 -20q-100 -136 -262 -136q-142 0 -237.5 103t-95.5 243t95.5 242.5t237.5 102.5q140 0 227 -95q9 -9 9 -21t-8 -20q-7 -9 -20 -9q-10 0 -20 8q-46 38 -89 58t-99 20q-118 0 -192.5 -85t-74.5 -201t74.5 -201.5t192.5 -85.5q72 0 122 29.5t96 85.5
q9 10 22 10q12 0 19 -7q10 -9 10 -21zM511 -128q0 -41 -30.5 -65.5t-74.5 -24.5q-50 0 -74 17q-6 5 -6 11t4.5 10t10.5 3q54 -9 62 -9q29 0 47.5 14.5t18.5 41.5t-19.5 40t-48.5 13q-7 0 -21.5 -1.5t-17.5 -1.5q-13 0 -12 12q0 4 5 19.5l10 31.5t5 17h29l-20 -55q18 3 45 3
q34 0 60.5 -21t26.5 -55z" />
    <glyph glyph-name="Egrave" unicode="&#xc8;" horiz-adv-x="607" 
d="M358 736q0 -4 -4 -12q-6 -11 -20 -11q-7 0 -12 4l-129 92q-10 7 -10 19q0 7 5 14q7 10 18 10q7 0 14 -5l129 -92q9 -7 9 -19zM567 30q0 -13 -8.5 -21.5t-21.5 -8.5h-399q-14 0 -23.5 10t-9.5 23v601q0 13 9.5 22.5t23.5 9.5h384q13 0 22 -8.5t9 -21.5t-9 -21.5t-22 -8.5
h-352v-229h199q13 0 21.5 -8.5t8.5 -21.5t-8.5 -21.5t-21.5 -8.5h-199v-257h367q13 0 21.5 -8.5t8.5 -21.5z" />
    <glyph glyph-name="Eacute" unicode="&#xc9;" horiz-adv-x="607" 
d="M468 828q0 -12 -10 -19l-129 -92q-5 -4 -13 -4q-14 0 -20 11q-3 6 -3 12q0 12 9 19l129 92q7 5 13 5q12 0 19 -10q5 -7 5 -14zM567 30q0 -13 -8.5 -21.5t-21.5 -8.5h-399q-14 0 -23.5 10t-9.5 23v601q0 13 9.5 22.5t23.5 9.5h384q13 0 22 -8.5t9 -21.5t-9 -21.5t-22 -8.5
h-352v-229h199q13 0 21.5 -8.5t8.5 -21.5t-8.5 -21.5t-21.5 -8.5h-199v-257h367q13 0 21.5 -8.5t8.5 -21.5z" />
    <glyph glyph-name="Ecircumflex" unicode="&#xca;" horiz-adv-x="607" 
d="M455 737q0 -5 -3 -11q-7 -10 -16 -10q-6 0 -12 3l-96 63l-96 -63q-4 -3 -11 -3q-10 0 -17 10q-4 8 -4 11q0 10 10 17l107 69q5 3 11 3q7 0 12 -4l106 -68q9 -6 9 -17zM567 30q0 -13 -8.5 -21.5t-21.5 -8.5h-399q-14 0 -23.5 10t-9.5 23v601q0 13 9.5 22.5t23.5 9.5h384
q13 0 22 -8.5t9 -21.5t-9 -21.5t-22 -8.5h-352v-229h199q13 0 21.5 -8.5t8.5 -21.5t-8.5 -21.5t-21.5 -8.5h-199v-257h367q13 0 21.5 -8.5t8.5 -21.5z" />
    <glyph glyph-name="Edieresis" unicode="&#xcb;" horiz-adv-x="607" 
d="M455 755q0 -14 -10 -24t-24 -10t-24 10t-10 24t10 24.5t24 10.5t24 -10.5t10 -24.5zM282 755q0 -14 -9.5 -24t-23.5 -10t-24.5 10t-10.5 24t10.5 24.5t24.5 10.5t23.5 -10.5t9.5 -24.5zM567 30q0 -13 -8.5 -21.5t-21.5 -8.5h-399q-14 0 -23.5 10t-9.5 23v601
q0 13 9.5 22.5t23.5 9.5h384q13 0 22 -8.5t9 -21.5t-9 -21.5t-22 -8.5h-352v-229h199q13 0 21.5 -8.5t8.5 -21.5t-8.5 -21.5t-21.5 -8.5h-199v-257h367q13 0 21.5 -8.5t8.5 -21.5z" />
    <glyph glyph-name="Igrave" unicode="&#xcc;" horiz-adv-x="291" 
d="M157 736q0 -4 -4 -12q-6 -11 -19 -11q-8 0 -13 4l-129 92q-10 7 -10 19q0 7 5 14q7 10 19 10q6 0 13 -5l129 -92q9 -7 9 -19zM170 25q0 -14 -9.5 -23.5t-22.5 -9.5q-14 0 -23.5 10t-9.5 23v617q0 14 9.5 23.5t23.5 9.5q13 0 22.5 -9.5t9.5 -23.5v-617z" />
    <glyph glyph-name="Iacute" unicode="&#xcd;" horiz-adv-x="291" 
d="M300 828q0 -12 -10 -19l-129 -92q-5 -4 -12 -4q-14 0 -20 11q-4 8 -4 12q0 12 9 19l129 92q7 5 14 5q11 0 18 -10q5 -7 5 -14zM170 25q0 -14 -9.5 -23.5t-22.5 -9.5q-14 0 -23.5 10t-9.5 23v617q0 14 9.5 23.5t23.5 9.5q13 0 22.5 -9.5t9.5 -23.5v-617z" />
    <glyph glyph-name="Icircumflex" unicode="&#xce;" horiz-adv-x="291" 
d="M273 737q0 -5 -3 -11q-7 -10 -16 -10q-6 0 -12 3l-96 63l-96 -63q-5 -3 -11 -3q-10 0 -17 10q-4 8 -4 11q0 10 10 17l107 69q5 3 11 3q7 0 12 -4l106 -68q9 -6 9 -17zM170 25q0 -14 -9.5 -23.5t-22.5 -9.5q-14 0 -23.5 10t-9.5 23v617q0 14 9.5 23.5t23.5 9.5
q13 0 22.5 -9.5t9.5 -23.5v-617z" />
    <glyph glyph-name="Idieresis" unicode="&#xcf;" horiz-adv-x="291" 
d="M266 755q0 -14 -10 -24t-24 -10t-24 10t-10 24t10 24.5t24 10.5t24 -10.5t10 -24.5zM93 755q0 -14 -9.5 -24t-23.5 -10t-24.5 10t-10.5 24t10.5 24.5t24.5 10.5t23.5 -10.5t9.5 -24.5zM170 25q0 -14 -9.5 -23.5t-22.5 -9.5q-14 0 -23.5 10t-9.5 23v617q0 14 9.5 23.5
t23.5 9.5q13 0 22.5 -9.5t9.5 -23.5v-617z" />
    <glyph glyph-name="Eth" unicode="&#xd0;" horiz-adv-x="725" 
d="M670 333q0 -139 -89 -236t-234 -97h-181q-14 0 -23.5 10t-9.5 23v270h-96q-11 0 -19 8t-8 19t8 19.5t19 8.5h96v276q0 13 9.5 22.5t23.5 9.5h181q145 0 234 -97t89 -236zM604 333q0 116 -70 195t-193 79h-142v-249h123q11 0 20 -8.5t9 -19.5t-9 -19t-20 -8h-123v-244h142
q123 0 193 79t70 195z" />
    <glyph glyph-name="Ntilde" unicode="&#xd1;" horiz-adv-x="722" 
d="M500 775q0 -2 -1.5 -4.5t-1.5 -3.5q-11 -20 -33 -33t-44 -13q-23 0 -54 18t-52 18q-10 0 -19 -4t-14 -8t-13 -11.5t-10 -9.5q-3 -3 -8 -3q-9 0 -14 5t-5 12t2 10q11 20 35 34t46 14q24 0 56 -18.5t51 -18.5q8 0 16.5 4t13.5 8t12.5 11t9.5 9t8 2q7 0 13 -6t6 -12zM617 23
q0 -13 -9 -21.5t-22 -9.5q-16 -1 -25 12l-393 552v-533q0 -13 -9.5 -22t-22.5 -9t-22 9t-9 22v620q0 13 9 22.5t23 9.5q16 0 25 -13q320 -458 392 -551v532q0 13 9 22.5t22 9.5t22.5 -9.5t9.5 -22.5v-620z" />
    <glyph glyph-name="Ograve" unicode="&#xd2;" horiz-adv-x="766" 
d="M401 736q0 -6 -3 -12q-6 -11 -20 -11q-8 0 -13 4l-129 92q-10 7 -10 19q0 7 5 14q7 10 19 10q6 0 13 -5l129 -92q9 -7 9 -19zM716 333q0 -140 -95 -243t-237 -103t-238 103t-96 243t96 242.5t238 102.5t237 -102.5t95 -242.5zM651 333q0 117 -75 201.5t-192 84.5
t-193 -85t-76 -201t76 -201.5t193 -85.5t192 85t75 202z" />
    <glyph glyph-name="Oacute" unicode="&#xd3;" horiz-adv-x="766" 
d="M534 828q0 -13 -9 -19l-129 -92q-5 -4 -13 -4q-14 0 -20 11q-4 8 -4 12q0 11 10 19l128 92q7 5 14 5q12 0 19 -10q4 -5 4 -14zM716 333q0 -140 -95 -243t-237 -103t-238 103t-96 243t96 242.5t238 102.5t237 -102.5t95 -242.5zM651 333q0 117 -75 201.5t-192 84.5
t-193 -85t-76 -201t76 -201.5t193 -85.5t192 85t75 202z" />
    <glyph glyph-name="Ocircumflex" unicode="&#xd4;" horiz-adv-x="766" 
d="M511 737q0 -3 -4 -11q-7 -10 -16 -10q-7 0 -12 3l-96 63l-96 -63q-6 -3 -11 -3q-12 0 -17 10q-4 6 -3 11q0 11 8 17l107 69q5 3 11 3q8 0 12 -4l106 -68q9 -6 11 -17zM716 333q0 -140 -95 -243t-237 -103t-238 103t-96 243t96 242.5t238 102.5t237 -102.5t95 -242.5z
M651 333q0 117 -75 201.5t-192 84.5t-193 -85t-76 -201t76 -201.5t193 -85.5t192 85t75 202z" />
    <glyph glyph-name="Otilde" unicode="&#xd5;" horiz-adv-x="766" 
d="M518 775h-1q0 -5 -1 -8q-11 -19 -33.5 -32.5t-44.5 -13.5q-23 0 -54 18t-52 18q-10 0 -19 -4t-14 -8t-13 -11.5t-10 -9.5q-4 -3 -8 -3q-9 0 -14 5q-4 3 -6 12q0 1 3 10q12 20 35.5 34t44.5 14q25 0 56.5 -18.5t50.5 -18.5q8 0 16.5 4t13.5 8t12.5 11t9.5 9q3 2 8 2
q7 0 13 -6q7 -5 7 -12zM716 333q0 -140 -95 -243t-237 -103t-238 103t-96 243t96 242.5t238 102.5t237 -102.5t95 -242.5zM651 333q0 117 -75 201.5t-192 84.5t-193 -85t-76 -201t76 -201.5t193 -85.5t192 85t75 202z" />
    <glyph glyph-name="Odieresis" unicode="&#xd6;" horiz-adv-x="766" 
d="M503 755q0 -14 -10 -24t-24 -10t-23.5 10t-9.5 24t9.5 24.5t23.5 10.5t24 -10.5t10 -24.5zM331 755q0 -14 -10 -24t-24 -10t-24 10t-10 24t10 24.5t24 10.5t24 -10.5t10 -24.5zM716 333q0 -140 -95 -243t-237 -103t-238 103t-96 243t96 242.5t238 102.5t237 -102.5
t95 -242.5zM651 333q0 117 -75 201.5t-192 84.5t-193 -85t-76 -201t76 -201.5t193 -85.5t192 85t75 202z" />
    <glyph glyph-name="multiply" unicode="&#xd7;" horiz-adv-x="467" 
d="M402 61q0 -11 -7.5 -18.5t-17.5 -7.5q-11 0 -19 8l-125 125l-124 -124q-8 -8 -18 -8q-11 0 -18.5 8t-7.5 18q0 11 7 18l125 124l-123 122q-8 8 -8 19q0 10 7.5 17.5t18.5 7.5q12 0 19 -7l122 -122l124 123q8 8 18 8q11 0 18.5 -8t7.5 -18t-8 -18l-124 -124l125 -125
q8 -8 8 -18z" />
    <glyph glyph-name="Oslash" unicode="&#xd8;" horiz-adv-x="767" 
d="M717 333q0 -140 -95.5 -243t-237.5 -103q-84 0 -153 37l-50 -90q-7 -13 -21 -6q-13 7 -6 21l50 91q-71 47 -112.5 125.5t-41.5 167.5q0 140 96 242.5t238 102.5q83 0 152 -37l50 90q7 13 21 6t7 -21l-51 -91q72 -47 113 -125t41 -167zM651 333q0 72 -31 135.5t-86 103.5
l-274 -494q58 -32 124 -32q117 0 192 85t75 202zM507 588q-56 31 -123 31q-117 0 -193 -85t-76 -201q0 -72 31.5 -136t86.5 -104z" />
    <glyph glyph-name="Ugrave" unicode="&#xd9;" horiz-adv-x="699" 
d="M374 736q0 -4 -4 -12q-6 -11 -20 -11q-8 0 -13 4l-129 92q-9 6 -9 19q0 9 4 14q7 10 19 10q7 0 14 -5l128 -92q10 -8 10 -19zM609 264q0 -128 -69 -202.5t-190 -74.5t-190.5 75t-69.5 202v378q0 14 10 23.5t23 9.5t22.5 -9.5t9.5 -23.5v-390q0 -94 51 -150t144 -56
t143 56t50 150v390q0 13 10 23t24 10q13 0 22.5 -9.5t9.5 -23.5v-378z" />
    <glyph glyph-name="Uacute" unicode="&#xda;" horiz-adv-x="699" 
d="M505 828q0 -12 -10 -19l-129 -92q-5 -4 -12 -4q-14 0 -20 11q-4 8 -4 12q0 12 9 19l129 92q7 5 14 5q11 0 18 -10q5 -7 5 -14zM609 264q0 -128 -69 -202.5t-190 -74.5t-190.5 75t-69.5 202v378q0 14 10 23.5t23 9.5t22.5 -9.5t9.5 -23.5v-390q0 -94 51 -150t144 -56
t143 56t50 150v390q0 13 10 23t24 10q13 0 22.5 -9.5t9.5 -23.5v-378z" />
    <glyph glyph-name="Ucircumflex" unicode="&#xdb;" horiz-adv-x="699" 
d="M477 737q0 -5 -3 -11q-7 -10 -16 -10q-7 0 -13 3l-96 63l-95 -63q-4 -3 -11 -3q-11 0 -18 10q-3 6 -3 11q0 10 10 17l107 69q5 3 10 3q8 0 13 -4l106 -68q9 -6 9 -17zM609 264q0 -128 -69 -202.5t-190 -74.5t-190.5 75t-69.5 202v378q0 14 10 23.5t23 9.5t22.5 -9.5
t9.5 -23.5v-390q0 -94 51 -150t144 -56t143 56t50 150v390q0 13 10 23t24 10q13 0 22.5 -9.5t9.5 -23.5v-378z" />
    <glyph glyph-name="Udieresis" unicode="&#xdc;" horiz-adv-x="699" 
d="M470 755q0 -14 -10 -24t-24 -10t-24 10t-10 24t10 24.5t24 10.5t24 -10.5t10 -24.5zM297 755q0 -14 -10 -24t-24 -10t-24 10t-10 24t10 24.5t24 10.5t24 -10.5t10 -24.5zM609 264q0 -128 -69 -202.5t-190 -74.5t-190.5 75t-69.5 202v378q0 14 10 23.5t23 9.5t22.5 -9.5
t9.5 -23.5v-390q0 -94 51 -150t144 -56t143 56t50 150v390q0 13 10 23t24 10q13 0 22.5 -9.5t9.5 -23.5v-378z" />
    <glyph glyph-name="Yacute" unicode="&#xdd;" horiz-adv-x="577" 
d="M440 828q0 -12 -10 -19l-129 -92q-5 -4 -13 -4q-14 0 -20 11q-3 6 -3 12q0 12 9 19l129 92q7 5 13 5q12 0 19 -10q5 -7 5 -14zM557 645q0 -11 -6 -18l-229 -310v-292q0 -13 -10 -23t-24 -10q-13 0 -22.5 9.5t-9.5 23.5v292l-230 310q-6 7 -6 18q0 15 12 24q7 6 18 6
q15 0 24 -12l214 -292l215 292q9 12 24 12q10 0 19 -7q11 -9 11 -23z" />
    <glyph glyph-name="Thorn" unicode="&#xde;" horiz-adv-x="676" 
d="M621 335q0 -80 -52.5 -134.5t-144.5 -54.5h-244v-121q0 -13 -10 -23t-23 -10t-22.5 9.5t-9.5 23.5v617q0 14 9.5 23.5t23.5 9.5q13 0 22.5 -9.5t9.5 -23.5v-118h244q92 0 144.5 -54.5t52.5 -134.5zM556 335q0 54 -34.5 92t-91.5 38h-250v-260h250q57 0 91.5 38t34.5 92z
" />
    <glyph glyph-name="germandbls" unicode="&#xdf;" horiz-adv-x="647" 
d="M587 183q0 -78 -55 -131t-142 -53h-137q-12 0 -21 8.5t-9 20.5t9 21t21 9h144q56 0 90.5 38.5t34.5 92.5t-34.5 92.5t-90.5 38.5h-144q-12 0 -21 9t-9 21t9 20t21 8h107q55 0 86.5 31.5t31.5 80.5q0 58 -39.5 94t-114.5 36q-74 0 -109.5 -40.5t-35.5 -108.5v-443
q0 -14 -9.5 -23t-22.5 -9t-22.5 9t-9.5 23v441q0 92 55 150.5t154 58.5q102 0 160.5 -51t58.5 -131q0 -47 -24 -84t-66 -56q61 -13 97.5 -62t36.5 -111z" />
    <glyph glyph-name="agrave" unicode="&#xe0;" horiz-adv-x="512" 
d="M442 22q0 -13 -8 -21.5t-21 -8.5t-22 8.5t-9 21.5v27q-20 -26 -61 -43.5t-88 -17.5q-76 0 -127 41t-51 104q0 67 50 105.5t128 38.5q101 0 149 -51v52q-1 64 -34 90.5t-106 26.5q-65 0 -139 -31q-6 -3 -11 -3q-16 0 -22 14q-3 5 -3 11q0 14 14 22q64 38 166 38
q195 0 195 -172v-252zM382 134q0 50 -38 73t-97 23q-57 0 -95 -24t-38 -73q0 -48 39 -73t91 -25q57 0 97.5 28t40.5 71zM291 520q0 -5 -4 -13q-6 -10 -20 -10q-8 0 -12 3l-129 93q-10 7 -10 19q0 7 5 14q6 9 18 9q9 0 14 -4l129 -92q9 -7 9 -19z" />
    <glyph glyph-name="aacute" unicode="&#xe1;" horiz-adv-x="512" 
d="M442 22q0 -13 -8 -21.5t-21 -8.5t-22 8.5t-9 21.5v27q-20 -26 -61 -43.5t-88 -17.5q-76 0 -127 41t-51 104q0 67 50 105.5t128 38.5q101 0 149 -51v52q-1 64 -34 90.5t-106 26.5q-65 0 -139 -31q-6 -3 -11 -3q-16 0 -22 14q-3 5 -3 11q0 14 14 22q64 38 166 38
q195 0 195 -172v-252zM382 134q0 50 -38 73t-97 23q-57 0 -95 -24t-38 -73q0 -48 39 -73t91 -25q57 0 97.5 28t40.5 71zM391 612q0 -12 -10 -19l-129 -93q-4 -3 -12 -3q-14 0 -20 10q-4 8 -4 13q0 12 9 19l129 92q5 4 14 4q12 0 18 -9q5 -7 5 -14z" />
    <glyph glyph-name="acircumflex" unicode="&#xe2;" horiz-adv-x="512" 
d="M442 22q0 -13 -8 -21.5t-21 -8.5t-22 8.5t-9 21.5v27q-20 -26 -61 -43.5t-88 -17.5q-76 0 -127 41t-51 104q0 67 50 105.5t128 38.5q101 0 149 -51v52q-1 64 -34 90.5t-106 26.5q-65 0 -139 -31q-6 -3 -11 -3q-16 0 -22 14q-3 5 -3 11q0 14 14 22q64 38 166 38
q195 0 195 -172v-252zM382 134q0 50 -38 73t-97 23q-57 0 -95 -24t-38 -73q0 -48 39 -73t91 -25q57 0 97.5 28t40.5 71zM375 511q0 -5 -3 -11q-7 -10 -16 -10q-7 0 -13 3l-96 63l-95 -63q-4 -3 -11 -3q-11 0 -18 10q-3 6 -3 11q0 10 10 17l106 69q5 3 11 3q8 0 13 -4
l106 -68q9 -6 9 -17z" />
    <glyph glyph-name="atilde" unicode="&#xe3;" horiz-adv-x="512" 
d="M442 22q0 -13 -8 -21.5t-21 -8.5t-22 8.5t-9 21.5v27q-20 -26 -61 -43.5t-88 -17.5q-76 0 -127 41t-51 104q0 67 50 105.5t128 38.5q101 0 149 -51v52q-1 64 -34 90.5t-106 26.5q-65 0 -139 -31q-6 -3 -11 -3q-16 0 -22 14q-3 5 -3 11q0 14 14 22q64 38 166 38
q195 0 195 -172v-252zM382 134q0 50 -38 73t-97 23q-57 0 -95 -24t-38 -73q0 -48 39 -73t91 -25q57 0 97.5 28t40.5 71zM391 558q0 -2 -2 -8q-11 -20 -33.5 -33.5t-44.5 -13.5q-23 0 -54 18t-52 18q-10 0 -19 -4t-14 -8t-12 -11.5t-10 -9.5q-3 -3 -9 -3q-8 0 -13 5
q-6 6 -6 13q0 5 3 9q11 20 34.5 34t45.5 14q24 0 56 -18t51 -18q8 0 16.5 4t13.5 7.5t12.5 10.5t9.5 9q3 3 8 3q8 0 14 -6q5 -5 5 -12z" />
    <glyph glyph-name="adieresis" unicode="&#xe4;" horiz-adv-x="512" 
d="M442 22q0 -13 -8 -21.5t-21 -8.5t-22 8.5t-9 21.5v27q-20 -26 -61 -43.5t-88 -17.5q-76 0 -127 41t-51 104q0 67 50 105.5t128 38.5q101 0 149 -51v52q-1 64 -34 90.5t-106 26.5q-65 0 -139 -31q-6 -3 -11 -3q-16 0 -22 14q-3 5 -3 11q0 14 14 22q64 38 166 38
q195 0 195 -172v-252zM382 134q0 50 -38 73t-97 23q-57 0 -95 -24t-38 -73q0 -48 39 -73t91 -25q57 0 97.5 28t40.5 71zM386 545q0 -15 -10 -25.5t-25 -10.5t-25 10.5t-10 25.5t10 25t25 10t25 -10t10 -25zM207 545q0 -15 -10 -25.5t-25 -10.5t-25 10.5t-10 25.5t10 25
t25 10t25 -10t10 -25z" />
    <glyph glyph-name="aring" unicode="&#xe5;" horiz-adv-x="512" 
d="M442 22q0 -13 -8 -21.5t-21 -8.5t-22 8.5t-9 21.5v27q-20 -26 -61 -43.5t-88 -17.5q-76 0 -127 41t-51 104q0 67 50 105.5t128 38.5q101 0 149 -51v52q-1 64 -34 90.5t-106 26.5q-65 0 -139 -31q-6 -3 -11 -3q-16 0 -22 14q-3 5 -3 11q0 14 14 22q64 38 166 38
q195 0 195 -172v-252zM382 134q0 50 -38 73t-97 23q-57 0 -95 -24t-38 -73q0 -48 39 -73t91 -25q57 0 97.5 28t40.5 71zM341 572q0 -39 -27 -66.5t-66 -27.5t-66.5 27.5t-27.5 66.5t27.5 66t66.5 27t66 -27t27 -66zM313 572q0 27 -18.5 45.5t-46.5 18.5t-46.5 -18.5
t-18.5 -45.5t19 -46.5t46 -19.5t46 19.5t19 46.5z" />
    <glyph glyph-name="ae" unicode="&#xe6;" horiz-adv-x="860" 
d="M825 222q0 -21 -23 -21h-358q2 -68 51 -115t118 -47q84 0 147 70q9 10 19 10q9 0 16 -6q9 -8 9 -19q0 -8 -6 -16q-28 -38 -78 -64t-109 -26q-57 0 -106.5 25.5t-80.5 70.5q-46 -96 -184 -96q-81 0 -133 41t-52 104q0 67 50 105.5t128 38.5q101 0 149 -51v52
q-1 64 -34 90.5t-106 26.5q-67 0 -139 -31q-6 -3 -12 -3q-15 0 -21 14q-3 5 -3 10q0 15 14 23q64 38 166 38q139 0 179 -90q65 90 179 90q93 0 156.5 -66t63.5 -158zM765 246q-7 64 -51 107t-109 43t-109 -42.5t-51 -107.5h320zM382 134q0 50 -38 73t-97 23q-57 0 -95 -24
t-38 -73q0 -48 39 -73t91 -25q57 0 97.5 28t40.5 71z" />
    <glyph glyph-name="ccedilla" unicode="&#xe7;" horiz-adv-x="488" 
d="M454 92q0 -10 -6 -17q-31 -39 -78.5 -63t-100.5 -24q-96 0 -162.5 65.5t-66.5 163.5t66.5 163.5t162.5 65.5q89 0 158 -63q9 -9 9 -19q0 -8 -6 -16q-8 -9 -19 -9q-9 0 -16 5q-65 50 -126 50q-72 0 -120.5 -51.5t-48.5 -125.5t48.5 -125.5t120.5 -51.5q79 0 142 69
q7 8 18 8t18 -7t7 -18zM390 -128q0 -41 -30.5 -65.5t-74.5 -24.5q-50 0 -74 17q-6 5 -6 11t4.5 10t10.5 3q54 -9 62 -9q29 0 47.5 14.5t18.5 41.5t-19.5 40t-48.5 13q-7 0 -21.5 -1.5t-17.5 -1.5q-13 0 -12 12q0 4 5 19.5l10 31.5t5 17h29l-20 -55q18 3 45 3q34 0 60.5 -21
t26.5 -55z" />
    <glyph glyph-name="egrave" unicode="&#xe8;" horiz-adv-x="517" 
d="M482 222q0 -21 -23 -21v0v0v0v0v0v0v0v0v0v0v0v0v0v0v0v0v0v0v0v0v0h-1v0v0v0v0v0v0v0v0v0h-1v0v0v0v0v0v0h-1v0v0v0v0h-1v0v0v0v0h-1v0v0v0h-1v0v0v0h-1v0v0h-1v0v0h-1v0v0h-1v0v0h-1v0v0h-1v0h-1v0v0h-1v0h-1v0h-1v0h-1v0h-1v0h-1v0h-1v0h-1v0h-1v0h-1v0h-1v0h-1v0h-1
v0h-1v0h-1v0h-1h-1v0h-1v0h-1v0h-1v0h-1h-1v0h-1h-1v0h-1h-1v0h-1h-1v0h-1h-1v0h-1h-1h-1v0h-1h-1h-1h-1v0h-1h-1h-1h-1h-1h-1h-1h-1v0h-1h-1h-1h-1h-1h-1h-1h-1h-1h-1h-1h-1h-1h-1h-1h-1h-1h-1h-1h-1h-1h-1h-1h-1h-1h-1h-1h-1h-1h-1h-1h-1h-1h-1h-1h-1h-1h-1h-1h-1h-1h-1
h-1h-1h-1h-1h-1h-1h-1h-1h-1h-1h-1h-1h-1h-1h-1h-1h-1h-1h-1h-1h-1h-1h-1h-1h-1h-1h-1h-1h-1h-1h-1h-1h-1h-1h-1h-1h-1h-1h-1h-1h-1h-1h-1h-1h-1h-1h-1h-1h-1h-1h-1h-1h-1h-1h-1h-1h-1h-1h-1h-1h-1h-1h-1h-1h-1h-1h-1h-1h-1h-1h-1h-1h-1h-1h-1h-1h-1h-1h-1h-1h-1h-1h-1h-1
h-1h-1h-1h-1h-1h-1h-1h-1h-1h-1h-1h-1h-1h-1h-1h-1h-1h-1h-1h-1h-1h-1h-1h-1h-1h-1h-1h-1h-1h-1h-1h-1h-1h-1h-1h-1h-1h-1h-1h-1h-1h-1h-1h-1h-1h-1h-1h-1h-1h-1h-1h-1h-1h-1h-1h-1h-1h-1h-1h-1h-1h-1h-1h-1h-1h-1h-1h-1h-1h-1h-1h-1h-1h-1h-1h-1h-1h-1h-1h-1h-1h-1h-1h-1
h-1h-1h-1h-1h-1h-1h-1h-1h-1h-1h-1h-1h-1h-1h-1h-1h-1h-1h-1h-1h-1h-1h-1h-1h-1h-1h-1h-1h-1h-1h-1h-1h-1h-1h-1h-1h-1h-1h-1h-1h-1h-1h-1h-1h-1h-1h-1h-1h-1h-1h-1h-1h-1h-1h-1h-1h-1h-1h-1h-1h-1h-1h-1h-1h-1h-1h-1h-1h-1h-1h-1h-1h-1h-1h-1h-1h-1h-1h-1h-10
q2 -68 50.5 -115t117.5 -47q85 0 148 70q9 10 19 10q9 0 16 -6q9 -8 9 -19q0 -8 -6 -16q-28 -37 -78.5 -63.5t-109.5 -26.5q-95 0 -161.5 66.5t-66.5 162.5t64 162.5t159 66.5q93 0 156 -65.5t63 -158.5zM422 246q-7 64 -50.5 106.5t-108.5 42.5t-109.5 -42t-51.5 -107h320z
M283 520q0 -5 -4 -13q-6 -10 -20 -10q-8 0 -12 3l-129 93q-10 7 -10 19q0 7 5 14q6 9 18 9q9 0 14 -4l129 -92q9 -7 9 -19z" />
    <glyph glyph-name="eacute" unicode="&#xe9;" horiz-adv-x="517" 
d="M482 222q0 -21 -23 -21v0v0v0v0v0v0v0v0v0v0v0v0v0v0v0v0v0v0v0v0v0h-1v0v0v0v0v0v0v0v0v0h-1v0v0v0v0v0v0h-1v0v0v0v0h-1v0v0v0v0h-1v0v0v0h-1v0v0v0h-1v0v0h-1v0v0h-1v0v0h-1v0v0h-1v0v0h-1v0h-1v0v0h-1v0h-1v0h-1v0h-1v0h-1v0h-1v0h-1v0h-1v0h-1v0h-1v0h-1v0h-1v0h-1
v0h-1v0h-1v0h-1h-1v0h-1v0h-1v0h-1v0h-1h-1v0h-1h-1v0h-1h-1v0h-1h-1v0h-1h-1v0h-1h-1h-1v0h-1h-1h-1h-1v0h-1h-1h-1h-1h-1h-1h-1h-1v0h-1h-1h-1h-1h-1h-1h-1h-1h-1h-1h-1h-1h-1h-1h-1h-1h-1h-1h-1h-1h-1h-1h-1h-1h-1h-1h-1h-1h-1h-1h-1h-1h-1h-1h-1h-1h-1h-1h-1h-1h-1h-1
h-1h-1h-1h-1h-1h-1h-1h-1h-1h-1h-1h-1h-1h-1h-1h-1h-1h-1h-1h-1h-1h-1h-1h-1h-1h-1h-1h-1h-1h-1h-1h-1h-1h-1h-1h-1h-1h-1h-1h-1h-1h-1h-1h-1h-1h-1h-1h-1h-1h-1h-1h-1h-1h-1h-1h-1h-1h-1h-1h-1h-1h-1h-1h-1h-1h-1h-1h-1h-1h-1h-1h-1h-1h-1h-1h-1h-1h-1h-1h-1h-1h-1h-1h-1
h-1h-1h-1h-1h-1h-1h-1h-1h-1h-1h-1h-1h-1h-1h-1h-1h-1h-1h-1h-1h-1h-1h-1h-1h-1h-1h-1h-1h-1h-1h-1h-1h-1h-1h-1h-1h-1h-1h-1h-1h-1h-1h-1h-1h-1h-1h-1h-1h-1h-1h-1h-1h-1h-1h-1h-1h-1h-1h-1h-1h-1h-1h-1h-1h-1h-1h-1h-1h-1h-1h-1h-1h-1h-1h-1h-1h-1h-1h-1h-1h-1h-1h-1h-1
h-1h-1h-1h-1h-1h-1h-1h-1h-1h-1h-1h-1h-1h-1h-1h-1h-1h-1h-1h-1h-1h-1h-1h-1h-1h-1h-1h-1h-1h-1h-1h-1h-1h-1h-1h-1h-1h-1h-1h-1h-1h-1h-1h-1h-1h-1h-1h-1h-1h-1h-1h-1h-1h-1h-1h-1h-1h-1h-1h-1h-1h-1h-1h-1h-1h-1h-1h-1h-1h-1h-1h-1h-1h-1h-1h-1h-1h-1h-1h-10
q2 -68 50.5 -115t117.5 -47q85 0 148 70q9 10 19 10q9 0 16 -6q9 -8 9 -19q0 -8 -6 -16q-28 -37 -78.5 -63.5t-109.5 -26.5q-95 0 -161.5 66.5t-66.5 162.5t64 162.5t159 66.5q93 0 156 -65.5t63 -158.5zM422 246q-7 64 -50.5 106.5t-108.5 42.5t-109.5 -42t-51.5 -107h320z
M418 612q0 -12 -10 -19l-129 -93q-4 -3 -12 -3q-14 0 -20 10q-4 8 -4 13q0 12 9 19l129 92q5 4 14 4q12 0 18 -9q5 -7 5 -14z" />
    <glyph glyph-name="ecircumflex" unicode="&#xea;" horiz-adv-x="517" 
d="M482 222q0 -21 -23 -21v0v0v0v0v0v0v0v0v0v0v0v0v0v0v0v0v0v0v0v0v0h-1v0v0v0v0v0v0v0v0v0h-1v0v0v0v0v0v0h-1v0v0v0v0h-1v0v0v0v0h-1v0v0v0h-1v0v0v0h-1v0v0h-1v0v0h-1v0v0h-1v0v0h-1v0v0h-1v0h-1v0v0h-1v0h-1v0h-1v0h-1v0h-1v0h-1v0h-1v0h-1v0h-1v0h-1v0h-1v0h-1v0h-1
v0h-1v0h-1v0h-1h-1v0h-1v0h-1v0h-1v0h-1h-1v0h-1h-1v0h-1h-1v0h-1h-1v0h-1h-1v0h-1h-1h-1v0h-1h-1h-1h-1v0h-1h-1h-1h-1h-1h-1h-1h-1v0h-1h-1h-1h-1h-1h-1h-1h-1h-1h-1h-1h-1h-1h-1h-1h-1h-1h-1h-1h-1h-1h-1h-1h-1h-1h-1h-1h-1h-1h-1h-1h-1h-1h-1h-1h-1h-1h-1h-1h-1h-1h-1
h-1h-1h-1h-1h-1h-1h-1h-1h-1h-1h-1h-1h-1h-1h-1h-1h-1h-1h-1h-1h-1h-1h-1h-1h-1h-1h-1h-1h-1h-1h-1h-1h-1h-1h-1h-1h-1h-1h-1h-1h-1h-1h-1h-1h-1h-1h-1h-1h-1h-1h-1h-1h-1h-1h-1h-1h-1h-1h-1h-1h-1h-1h-1h-1h-1h-1h-1h-1h-1h-1h-1h-1h-1h-1h-1h-1h-1h-1h-1h-1h-1h-1h-1h-1
h-1h-1h-1h-1h-1h-1h-1h-1h-1h-1h-1h-1h-1h-1h-1h-1h-1h-1h-1h-1h-1h-1h-1h-1h-1h-1h-1h-1h-1h-1h-1h-1h-1h-1h-1h-1h-1h-1h-1h-1h-1h-1h-1h-1h-1h-1h-1h-1h-1h-1h-1h-1h-1h-1h-1h-1h-1h-1h-1h-1h-1h-1h-1h-1h-1h-1h-1h-1h-1h-1h-1h-1h-1h-1h-1h-1h-1h-1h-1h-1h-1h-1h-1h-1
h-1h-1h-1h-1h-1h-1h-1h-1h-1h-1h-1h-1h-1h-1h-1h-1h-1h-1h-1h-1h-1h-1h-1h-1h-1h-1h-1h-1h-1h-1h-1h-1h-1h-1h-1h-1h-1h-1h-1h-1h-1h-1h-1h-1h-1h-1h-1h-1h-1h-1h-1h-1h-1h-1h-1h-1h-1h-1h-1h-1h-1h-1h-1h-1h-1h-1h-1h-1h-1h-1h-1h-1h-1h-1h-1h-1h-1h-1h-1h-10
q2 -68 50.5 -115t117.5 -47q85 0 148 70q9 10 19 10q9 0 16 -6q9 -8 9 -19q0 -8 -6 -16q-28 -37 -78.5 -63.5t-109.5 -26.5q-95 0 -161.5 66.5t-66.5 162.5t64 162.5t159 66.5q93 0 156 -65.5t63 -158.5zM422 246q-7 64 -50.5 106.5t-108.5 42.5t-109.5 -42t-51.5 -107h320z
M394 511q0 -5 -3 -11q-7 -10 -16 -10q-7 0 -13 3l-96 63l-95 -63q-4 -3 -11 -3q-11 0 -18 10q-3 6 -3 11q0 10 10 17l106 69q5 3 11 3q8 0 13 -4l106 -68q9 -6 9 -17z" />
    <glyph glyph-name="edieresis" unicode="&#xeb;" horiz-adv-x="517" 
d="M482 222q0 -21 -23 -21v0v0v0v0v0v0v0v0v0v0v0v0v0v0v0v0v0v0v0v0v0h-1v0v0v0v0v0v0v0v0v0h-1v0v0v0v0v0v0h-1v0v0v0v0h-1v0v0v0v0h-1v0v0v0h-1v0v0v0h-1v0v0h-1v0v0h-1v0v0h-1v0v0h-1v0v0h-1v0h-1v0v0h-1v0h-1v0h-1v0h-1v0h-1v0h-1v0h-1v0h-1v0h-1v0h-1v0h-1v0h-1v0h-1
v0h-1v0h-1v0h-1h-1v0h-1v0h-1v0h-1v0h-1h-1v0h-1h-1v0h-1h-1v0h-1h-1v0h-1h-1v0h-1h-1h-1v0h-1h-1h-1h-1v0h-1h-1h-1h-1h-1h-1h-1h-1v0h-1h-1h-1h-1h-1h-1h-1h-1h-1h-1h-1h-1h-1h-1h-1h-1h-1h-1h-1h-1h-1h-1h-1h-1h-1h-1h-1h-1h-1h-1h-1h-1h-1h-1h-1h-1h-1h-1h-1h-1h-1h-1
h-1h-1h-1h-1h-1h-1h-1h-1h-1h-1h-1h-1h-1h-1h-1h-1h-1h-1h-1h-1h-1h-1h-1h-1h-1h-1h-1h-1h-1h-1h-1h-1h-1h-1h-1h-1h-1h-1h-1h-1h-1h-1h-1h-1h-1h-1h-1h-1h-1h-1h-1h-1h-1h-1h-1h-1h-1h-1h-1h-1h-1h-1h-1h-1h-1h-1h-1h-1h-1h-1h-1h-1h-1h-1h-1h-1h-1h-1h-1h-1h-1h-1h-1h-1
h-1h-1h-1h-1h-1h-1h-1h-1h-1h-1h-1h-1h-1h-1h-1h-1h-1h-1h-1h-1h-1h-1h-1h-1h-1h-1h-1h-1h-1h-1h-1h-1h-1h-1h-1h-1h-1h-1h-1h-1h-1h-1h-1h-1h-1h-1h-1h-1h-1h-1h-1h-1h-1h-1h-1h-1h-1h-1h-1h-1h-1h-1h-1h-1h-1h-1h-1h-1h-1h-1h-1h-1h-1h-1h-1h-1h-1h-1h-1h-1h-1h-1h-1h-1
h-1h-1h-1h-1h-1h-1h-1h-1h-1h-1h-1h-1h-1h-1h-1h-1h-1h-1h-1h-1h-1h-1h-1h-1h-1h-1h-1h-1h-1h-1h-1h-1h-1h-1h-1h-1h-1h-1h-1h-1h-1h-1h-1h-1h-1h-1h-1h-1h-1h-1h-1h-1h-1h-1h-1h-1h-1h-1h-1h-1h-1h-1h-1h-1h-1h-1h-1h-1h-1h-1h-1h-1h-1h-1h-1h-1h-1h-1h-1h-10
q2 -68 50.5 -115t117.5 -47q85 0 148 70q9 10 19 10q9 0 16 -6q9 -8 9 -19q0 -8 -6 -16q-28 -37 -78.5 -63.5t-109.5 -26.5q-95 0 -161.5 66.5t-66.5 162.5t64 162.5t159 66.5q93 0 156 -65.5t63 -158.5zM422 246q-7 64 -50.5 106.5t-108.5 42.5t-109.5 -42t-51.5 -107h320z
M388 545q0 -15 -10 -25.5t-25 -10.5t-25 10.5t-10 25.5t10 25t25 10t25 -10t10 -25zM209 545q0 -15 -10 -25.5t-25 -10.5t-25 10.5t-10 25.5t10 25t25 10t25 -10t10 -25z" />
    <glyph glyph-name="igrave" unicode="&#xec;" horiz-adv-x="260" 
d="M160 22q0 -13 -8.5 -21.5t-21.5 -8.5t-21.5 8.5t-8.5 21.5v390q0 13 8.5 21.5t21.5 8.5t21.5 -8.5t8.5 -21.5v-390zM155 520q0 -5 -4 -13q-6 -10 -20 -10q-8 0 -12 3l-129 93q-10 7 -10 19q0 7 5 14q6 9 18 9q9 0 14 -4l129 -92q9 -7 9 -19z" />
    <glyph glyph-name="iacute" unicode="&#xed;" horiz-adv-x="260" 
d="M160 22q0 -13 -8.5 -21.5t-21.5 -8.5t-21.5 8.5t-8.5 21.5v390q0 13 8.5 21.5t21.5 8.5t21.5 -8.5t8.5 -21.5v-390zM273 612q0 -12 -10 -19l-129 -93q-4 -3 -12 -3q-14 0 -20 10q-4 8 -4 13q0 12 9 19l129 92q5 4 14 4q12 0 18 -9q5 -7 5 -14z" />
    <glyph glyph-name="icircumflex" unicode="&#xee;" horiz-adv-x="260" 
d="M160 22q0 -13 -8.5 -21.5t-21.5 -8.5t-21.5 8.5t-8.5 21.5v390q0 13 8.5 21.5t21.5 8.5t21.5 -8.5t8.5 -21.5v-390zM260 511q0 -5 -3 -11q-7 -10 -16 -10q-7 0 -13 3l-96 63l-95 -63q-4 -3 -11 -3q-11 0 -18 10q-3 6 -3 11q0 10 10 17l106 69q5 3 11 3q8 0 13 -4l106 -68
q9 -6 9 -17z" />
    <glyph glyph-name="idieresis" unicode="&#xef;" horiz-adv-x="260" 
d="M160 22q0 -13 -8.5 -21.5t-21.5 -8.5t-21.5 8.5t-8.5 21.5v390q0 13 8.5 21.5t21.5 8.5t21.5 -8.5t8.5 -21.5v-390zM261 545q0 -15 -10 -25.5t-25 -10.5t-25 10.5t-10 25.5t10 25t25 10t25 -10t10 -25zM82 545q0 -15 -10 -25.5t-25 -10.5t-25 10.5t-10 25.5t10 25t25 10
t25 -10t10 -25z" />
    <glyph glyph-name="eth" unicode="&#xf0;" horiz-adv-x="555" 
d="M495 235q0 -112 -61.5 -180t-161.5 -68q-98 0 -160 67t-62 162t62 162t160 67q91 0 147 -68q-19 97 -78 166l-62 -41q-16 -10 -26 5t5 25l58 38q-19 19 -75 61q-11 8 -11 21q0 4 4 12q6 10 19 10q8 0 14 -3q44 -21 91 -71l44 28q16 11 26 -4t-6 -26l-39 -26
q112 -138 112 -337zM435 216q0 74 -44.5 125t-118.5 51t-118 -51t-44 -125t44 -125t118 -51t118.5 51t44.5 125z" />
    <glyph glyph-name="ntilde" unicode="&#xf1;" horiz-adv-x="606" 
d="M511 22q0 -13 -9 -21.5t-22 -8.5t-21 8.5t-8 21.5v224q0 65 -35.5 106t-103.5 41q-64 0 -108 -44t-44 -105v-222q0 -13 -8.5 -21.5t-21.5 -8.5t-21.5 8.5t-8.5 21.5v390q0 13 8 21.5t21 8.5q12 0 21 -8.5t9 -21.5v-48q25 37 70 59.5t95 22.5q85 0 136 -57t51 -144v-223z
M437 558q0 -2 -2 -8q-11 -20 -33.5 -33.5t-44.5 -13.5q-23 0 -54 18t-52 18q-10 0 -19 -4t-14 -8t-12 -11.5t-10 -9.5q-3 -3 -9 -3q-8 0 -13 5q-6 6 -6 13q0 5 3 9q11 20 34.5 34t45.5 14q24 0 56 -18t51 -18q8 0 16.5 4t13.5 7.5t12.5 10.5t9.5 9q3 3 8 3q8 0 14 -6
q5 -5 5 -12z" />
    <glyph glyph-name="ograve" unicode="&#xf2;" horiz-adv-x="538" 
d="M498 217q0 -95 -67 -162t-162 -67t-162 67t-67 162t67 162t162 67t162 -67t67 -162zM439 217q0 73 -49 124.5t-121 51.5t-120.5 -51.5t-48.5 -124.5t48.5 -124.5t120.5 -51.5t121 51.5t49 124.5zM285 520q0 -5 -4 -13q-6 -10 -20 -10q-8 0 -12 3l-129 93q-10 7 -10 19
q0 7 5 14q6 9 18 9q9 0 14 -4l129 -92q9 -7 9 -19z" />
    <glyph glyph-name="oacute" unicode="&#xf3;" horiz-adv-x="538" 
d="M498 217q0 -95 -67 -162t-162 -67t-162 67t-67 162t67 162t162 67t162 -67t67 -162zM439 217q0 73 -49 124.5t-121 51.5t-120.5 -51.5t-48.5 -124.5t48.5 -124.5t120.5 -51.5t121 51.5t49 124.5zM425 612q0 -12 -10 -19l-129 -93q-4 -3 -12 -3q-14 0 -20 10q-4 8 -4 13
q0 12 9 19l129 92q5 4 14 4q12 0 18 -9q5 -7 5 -14z" />
    <glyph glyph-name="ocircumflex" unicode="&#xf4;" horiz-adv-x="538" 
d="M397 511q0 -5 -3 -11q-7 -10 -16 -10q-8 0 -13 3l-96 63l-95 -63q-6 -3 -11 -3q-13 0 -18 10q-4 6 -3 11q0 10 9 17l106 69q5 3 11 3q9 0 13 -4l106 -68q8 -6 10 -17zM498 217q0 -95 -67 -162t-162 -67t-162 67t-67 162t67 162t162 67t162 -67t67 -162zM439 217
q0 73 -49 124.5t-121 51.5t-120.5 -51.5t-48.5 -124.5t48.5 -124.5t120.5 -51.5t121 51.5t49 124.5z" />
    <glyph glyph-name="otilde" unicode="&#xf5;" horiz-adv-x="538" 
d="M498 217q0 -95 -67 -162t-162 -67t-162 67t-67 162t67 162t162 67t162 -67t67 -162zM439 217q0 73 -49 124.5t-121 51.5t-120.5 -51.5t-48.5 -124.5t48.5 -124.5t120.5 -51.5t121 51.5t49 124.5zM402 558q0 -2 -2 -8q-11 -20 -33.5 -33.5t-44.5 -13.5q-23 0 -54 18
t-52 18q-10 0 -19 -4t-14 -8t-12 -11.5t-10 -9.5q-3 -3 -9 -3q-8 0 -13 5q-6 6 -6 13q0 5 3 9q11 20 34.5 34t45.5 14q24 0 56 -18t51 -18q8 0 16.5 4t13.5 7.5t12.5 10.5t9.5 9q3 3 8 3q8 0 14 -6q5 -5 5 -12z" />
    <glyph glyph-name="odieresis" unicode="&#xf6;" horiz-adv-x="538" 
d="M394 545q0 -15 -10.5 -25.5t-24.5 -10.5q-15 0 -25 10.5t-10 25.5t10 25t25 10q14 0 24.5 -10t10.5 -25zM215 545q0 -15 -10.5 -25.5t-24.5 -10.5q-15 0 -25 10.5t-10 25.5t10 25t25 10q14 0 24.5 -10t10.5 -25zM498 217q0 -95 -67 -162t-162 -67t-162 67t-67 162t67 162
t162 67t162 -67t67 -162zM439 217q0 73 -49 124.5t-121 51.5t-120.5 -51.5t-48.5 -124.5t48.5 -124.5t120.5 -51.5t121 51.5t49 124.5z" />
    <glyph glyph-name="divide" unicode="&#xf7;" horiz-adv-x="465" 
d="M265 277q0 -13 -9.5 -22.5t-22.5 -9.5q-14 0 -23.5 9.5t-9.5 22.5t10 23t23 10t22.5 -9.5t9.5 -23.5zM405 151q0 -8 -5.5 -14t-13.5 -6h-307q-8 0 -13.5 6t-5.5 14q0 19 19 19h307q19 0 19 -19zM265 25q0 -14 -9.5 -23.5t-22.5 -9.5t-23 10t-10 23t9.5 22.5t23.5 9.5
q13 0 22.5 -9.5t9.5 -22.5z" />
    <glyph glyph-name="oslash" unicode="&#xf8;" horiz-adv-x="538" 
d="M498 217q0 -95 -67 -162t-162 -67q-51 0 -98 22l-36 -65q-8 -13 -20 -6t-5 20l36 65q-49 31 -77.5 82t-28.5 111q0 95 67 162t162 67q52 0 99 -22l36 65q8 13 20 6t5 -20l-36 -65q49 -31 77 -82t28 -111zM439 217q0 93 -72 145l-170 -305q32 -16 72 -16q72 0 121 51.5
t49 124.5zM342 377q-32 16 -73 16q-72 0 -120.5 -51.5t-48.5 -124.5q0 -92 72 -144z" />
    <glyph glyph-name="ugrave" unicode="&#xf9;" horiz-adv-x="606" 
d="M506 22q0 -13 -8.5 -21.5t-21.5 -8.5q-12 0 -21 8.5t-9 21.5v48q-25 -38 -69.5 -60t-94.5 -22q-85 0 -136 57t-51 144v223q0 13 8.5 21.5t21.5 8.5t21.5 -8.5t8.5 -21.5v-224q0 -65 35.5 -106t103.5 -41q64 0 108 44t44 105v222q0 13 8 21.5t21 8.5t22 -8.5t9 -21.5v-390
zM315 520q0 -5 -4 -13q-6 -10 -20 -10q-8 0 -12 3l-129 93q-10 7 -10 19q0 7 5 14q6 9 18 9q9 0 14 -4l129 -92q9 -7 9 -19z" />
    <glyph glyph-name="uacute" unicode="&#xfa;" horiz-adv-x="606" 
d="M506 22q0 -13 -8.5 -21.5t-21.5 -8.5q-12 0 -21 8.5t-9 21.5v48q-25 -38 -69.5 -60t-94.5 -22q-85 0 -136 57t-51 144v223q0 13 8.5 21.5t21.5 8.5t21.5 -8.5t8.5 -21.5v-224q0 -65 35.5 -106t103.5 -41q64 0 108 44t44 105v222q0 13 8 21.5t21 8.5t22 -8.5t9 -21.5v-390
zM442 612q0 -12 -10 -19l-129 -93q-4 -3 -12 -3q-14 0 -20 10q-4 8 -4 13q0 12 9 19l129 92q5 4 14 4q12 0 18 -9q5 -7 5 -14z" />
    <glyph glyph-name="ucircumflex" unicode="&#xfb;" horiz-adv-x="606" 
d="M506 22q0 -13 -8.5 -21.5t-21.5 -8.5q-12 0 -21 8.5t-9 21.5v48q-25 -38 -69.5 -60t-94.5 -22q-85 0 -136 57t-51 144v223q0 13 8.5 21.5t21.5 8.5t21.5 -8.5t8.5 -21.5v-224q0 -65 35.5 -106t103.5 -41q64 0 108 44t44 105v222q0 13 8 21.5t21 8.5t22 -8.5t9 -21.5v-390
zM430 511q0 -5 -3 -11q-7 -10 -16 -10q-7 0 -13 3l-96 63l-95 -63q-4 -3 -11 -3q-11 0 -18 10q-3 6 -3 11q0 10 10 17l106 69q5 3 11 3q8 0 13 -4l106 -68q9 -6 9 -17z" />
    <glyph glyph-name="udieresis" unicode="&#xfc;" horiz-adv-x="606" 
d="M506 22q0 -13 -8.5 -21.5t-21.5 -8.5q-12 0 -21 8.5t-9 21.5v48q-25 -38 -69.5 -60t-94.5 -22q-85 0 -136 57t-51 144v223q0 13 8.5 21.5t21.5 8.5t21.5 -8.5t8.5 -21.5v-224q0 -65 35.5 -106t103.5 -41q64 0 108 44t44 105v222q0 13 8 21.5t21 8.5t22 -8.5t9 -21.5v-390
zM423 545q0 -15 -10 -25.5t-25 -10.5t-25 10.5t-10 25.5t10 25t25 10t25 -10t10 -25zM244 545q0 -15 -10 -25.5t-25 -10.5t-25 10.5t-10 25.5t10 25t25 10t25 -10t10 -25z" />
    <glyph glyph-name="yacute" unicode="&#xfd;" horiz-adv-x="458" 
d="M428 415q0 -7 -2 -11l-172 -394q-31 -70 -83 -124t-122 -79q-6 -2 -9 -2q-10 0 -17 7.5t-8 17.5q-2 19 19 26q111 40 165 164l-168 385q-2 6 -2 8q-2 19 17 27q4 2 11 2q18 0 24 -16l148 -341l147 341q6 16 26 16q3 0 9 -2q17 -7 17 -25zM370 612q0 -12 -10 -19l-129 -93
q-4 -3 -12 -3q-14 0 -20 10q-4 8 -4 13q0 12 9 19l129 92q5 4 14 4q12 0 18 -9q5 -7 5 -14z" />
    <glyph glyph-name="thorn" unicode="&#xfe;" horiz-adv-x="598" 
d="M558 217q0 -95 -65.5 -162t-159.5 -67q-56 0 -102.5 28.5t-71.5 74.5v-253q0 -14 -9 -22t-20 -8q-13 0 -21.5 8.5t-8.5 21.5v808q0 13 8.5 21t21.5 8t22 -8t9 -21v-302q25 45 70.5 73.5t101.5 28.5q94 0 159.5 -67t65.5 -162zM498 217q0 73 -48.5 124.5t-120.5 51.5
t-120 -51.5t-48 -124.5t48 -124.5t120 -51.5t120.5 51.5t48.5 124.5z" />
    <glyph glyph-name="ydieresis" unicode="&#xff;" horiz-adv-x="458" 
d="M428 415q0 -7 -2 -11l-172 -394q-31 -70 -83 -124t-122 -79q-6 -2 -9 -2q-10 0 -17 7.5t-8 17.5q-2 19 19 26q111 40 165 164l-168 385q-2 6 -2 8q-2 19 17 27q4 2 11 2q18 0 24 -16l148 -341l147 341q6 16 26 16q3 0 9 -2q17 -7 17 -25zM361 545q0 -15 -10 -25.5
t-25 -10.5t-25 10.5t-10 25.5t10 25t25 10t25 -10t10 -25zM182 545q0 -15 -10 -25.5t-25 -10.5t-25 10.5t-10 25.5t10 25t25 10t25 -10t10 -25z" />
    <glyph glyph-name="dotlessi" unicode="&#x131;" horiz-adv-x="260" 
d="M160 22q0 -13 -8.5 -21.5t-21.5 -8.5t-21.5 8.5t-8.5 21.5v390q0 13 8.5 21.5t21.5 8.5t21.5 -8.5t8.5 -21.5v-390z" />
    <glyph glyph-name="Lslash" unicode="&#x141;" horiz-adv-x="629" 
d="M594 30q0 -12 -8.5 -21t-20.5 -9h-386q-13 0 -22.5 9.5t-9.5 23.5v297l-24.5 -8.5l-41.5 -14t-21 -5.5q-9 -3 -18.5 3.5t-11.5 16.5q-5 23 16 30l101 33v257q0 14 9.5 23.5t22.5 9.5t23 -9.5t10 -23.5v-235l124 41q9 3 18.5 -3.5t11.5 -16.5q2 -9 -2.5 -18t-13.5 -12
l-138 -45v-293h353q12 0 20.5 -9t8.5 -21z" />
    <glyph glyph-name="lslash" unicode="&#x142;" horiz-adv-x="396" 
d="M366 435q5 -23 -16 -30l-123 -40v-343q0 -12 -8.5 -21t-21.5 -9t-21.5 8.5t-8.5 21.5v323q-103 -39 -107 -36q-9 -3 -18.5 3.5t-11.5 16.5q-2 9 2.5 18t13.5 12l121 40v246q0 13 8.5 21.5t21.5 8.5t21.5 -9t8.5 -21v-226l109 36q9 3 18.5 -3.5t11.5 -16.5z" />
    <glyph glyph-name="OE" unicode="&#x152;" horiz-adv-x="1153" 
d="M1113 29q0 -13 -8.5 -21t-21.5 -8h-399q-14 0 -23.5 10t-9.5 23v104q-41 -66 -113 -108t-154 -42q-142 0 -238 103t-96 243t96 242.5t238 102.5q82 0 153 -41t114 -107v104q0 13 9.5 22.5t23.5 9.5h384q13 0 22 -8.5t9 -21.5t-9 -21.5t-22 -8.5h-351v-229h198
q13 0 21.5 -8.5t8.5 -21.5t-8.5 -21.5t-21.5 -8.5h-198v-257h366q13 0 21.5 -9t8.5 -22zM651 335q0 117 -74.5 200.5t-192.5 83.5q-117 0 -192.5 -85t-75.5 -201t75.5 -201t192.5 -85t192 85t75 203z" />
    <glyph glyph-name="oe" unicode="&#x153;" horiz-adv-x="916" 
d="M881 222q0 -21 -23 -21v0v0v0v0v0v0v0v0v0v0v0v0v0v0v0v0v0v0v0v0v0h-1v0v0v0v0v0v0v0v0v0h-1v0v0v0v0v0v0h-1v0v0v0v0h-1v0v0v0v0h-1v0v0v0h-1v0v0v0h-1v0v0h-1v0v0h-1v0v0h-1v0v0h-1v0v0h-1v0h-1v0v0h-1v0h-1v0h-1v0h-1v0h-1v0h-1v0h-1v0h-1v0h-1v0h-1v0h-1v0h-1v0h-1
v0h-1v0h-1v0h-1h-1v0h-1v0h-1v0h-1v0h-1h-1v0h-1h-1v0h-1h-1v0h-1h-1v0h-1h-1v0h-1h-1h-1v0h-1h-1h-1h-1v0h-1h-1h-1h-1h-1h-1h-1h-1v0h-1h-1h-1h-1h-1h-1h-1h-1h-1h-1h-1h-1h-1h-1h-1h-1h-1h-1h-1h-1h-1h-1h-1h-1h-1h-1h-1h-1h-1h-1h-1h-1h-1h-1h-1h-1h-1h-1h-1h-1h-1h-1
h-1h-1h-1h-1h-1h-1h-1h-1h-1h-1h-1h-1h-1h-1h-1h-1h-1h-1h-1h-1h-1h-1h-1h-1h-1h-1h-1h-1h-1h-1h-1h-1h-1h-1h-1h-1h-1h-1h-1h-1h-1h-1h-1h-1h-1h-1h-1h-1h-1h-1h-1h-1h-1h-1h-1h-1h-1h-1h-1h-1h-1h-1h-1h-1h-1h-1h-1h-1h-1h-1h-1h-1h-1h-1h-1h-1h-1h-1h-1h-1h-1h-1h-1h-1
h-1h-1h-1h-1h-1h-1h-1h-1h-1h-1h-1h-1h-1h-1h-1h-1h-1h-1h-1h-1h-1h-1h-1h-1h-1h-1h-1h-1h-1h-1h-1h-1h-1h-1h-1h-1h-1h-1h-1h-1h-1h-1h-1h-1h-1h-1h-1h-1h-1h-1h-1h-1h-1h-1h-1h-1h-1h-1h-1h-1h-1h-1h-1h-1h-1h-1h-1h-1h-1h-1h-1h-1h-1h-1h-1h-1h-1h-1h-1h-1h-1h-1h-1h-1
h-1h-1h-1h-1h-1h-1h-1h-1h-1h-1h-1h-1h-1h-1h-1h-1h-1h-1h-1h-1h-1h-1h-1h-1h-1h-1h-1h-1h-1h-1h-1h-1h-1h-1h-1h-1h-1h-1h-1h-1h-1h-1h-1h-1h-1h-1h-1h-1h-1h-1h-1h-1h-1h-1h-1h-1h-1h-1h-1h-1h-1h-1h-1h-1h-1h-1h-1h-1h-1h-1h-1h-1h-1h-1h-1h-1h-1h-1h-1h-10
q2 -68 50.5 -115t117.5 -47q85 0 148 70q9 10 19 10q9 0 16 -6q8 -7 8 -19q0 -10 -5 -16q-28 -37 -78.5 -63.5t-109.5 -26.5q-63 0 -116 31.5t-83 84.5q-30 -53 -83 -84.5t-116 -31.5q-95 0 -162 67t-67 162t67 162t162 67q63 0 115 -31t83 -83q29 53 80.5 83.5t114.5 30.5
q93 0 156 -65.5t63 -158.5zM821 246q-7 64 -50.5 106.5t-108.5 42.5t-109.5 -42t-51.5 -107h320zM439 217q0 73 -49 124.5t-121 51.5t-120.5 -51.5t-48.5 -124.5t48.5 -124.5t120.5 -51.5t121 51.5t49 124.5z" />
    <glyph glyph-name="Scaron" unicode="&#x160;" horiz-adv-x="630" 
d="M444 805q0 -11 -9 -17l-107 -70q-3 -2 -11 -2q-7 0 -12 4l-106 68q-10 7 -10 17q0 3 4 11q7 10 16 10q4 0 12 -4l96 -62l96 62q6 4 10 4q11 0 18 -10q3 -6 3 -11zM570 172q0 -90 -70.5 -137.5t-178.5 -47.5q-67 0 -146 26.5t-121 74.5q-9 10 -9 22q0 11 7 19q10 10 21 10
t21 -8q99 -85 228 -85q75 0 128.5 30t53.5 93q0 53 -71 91q-36 19 -158 64q-44 16 -70 28t-58 34t-47.5 52.5t-15.5 70.5q0 84 67 126.5t172 42.5q61 0 124.5 -20t104.5 -51q13 -10 13 -25q0 -8 -5 -16q-10 -13 -24 -13q-9 0 -17 5q-96 61 -196 61q-75 0 -124.5 -27.5
t-49.5 -82.5q0 -18 5.5 -33t22 -29t28 -22.5t43 -21.5t46.5 -18.5l57 -20.5q9 -3 14 -5q67 -23 107.5 -44t69 -57.5t28.5 -85.5z" />
    <glyph glyph-name="scaron" unicode="&#x161;" horiz-adv-x="488" 
d="M418 112q0 -55 -49.5 -89.5t-130.5 -34.5q-96 0 -173 57q-10 7 -10 19q0 9 4 14q7 10 19 10q9 0 14 -4q67 -47 143 -47q52 0 88.5 18.5t36.5 55.5q0 29 -31.5 48.5t-115.5 47.5q-70 24 -105 51t-35 74q0 52 47.5 83t119.5 31q88 0 157 -44q12 -8 12 -21q0 -6 -3 -12
q-6 -12 -21 -12q-7 0 -13 3q-58 36 -128 36q-52 0 -83 -16.5t-31 -48.5t25.5 -47t106.5 -42q80 -26 118 -55t38 -75zM385 577q0 -11 -9 -17l-107 -70q-3 -2 -11 -2t-13 4l-105 68q-10 7 -10 17q0 5 3 11q7 10 16 10q5 0 13 -4l96 -62l95 62q6 4 11 4q11 0 18 -10q3 -6 3 -11
z" />
    <glyph glyph-name="Ydieresis" unicode="&#x178;" horiz-adv-x="577" 
d="M414 755q0 -14 -10 -24t-24 -10t-24 10t-10 24t10 24.5t24 10.5t24 -10.5t10 -24.5zM241 755q0 -14 -10 -24t-24 -10t-24 10t-10 24t10 24.5t24 10.5t24 -10.5t10 -24.5zM557 645q0 -11 -6 -18l-229 -310v-292q0 -13 -10 -23t-24 -10q-13 0 -22.5 9.5t-9.5 23.5v292
l-230 310q-6 7 -6 18q0 15 12 24q7 6 18 6q15 0 24 -12l214 -292l215 292q9 12 24 12q10 0 19 -7q11 -9 11 -23z" />
    <glyph glyph-name="Zcaron" unicode="&#x17d;" horiz-adv-x="635" 
d="M450 805q0 -10 -10 -17l-106 -70q-3 -2 -11 -2t-13 4l-106 68q-9 6 -9 17q0 5 3 11q7 10 16 10q5 0 13 -4l96 -62l95 62q6 4 11 4q11 0 18 -10q3 -6 3 -11zM575 30q0 -12 -8.5 -21t-21.5 -9h-453q-13 0 -19 5q-13 10 -13 26q0 11 6 18l410 557h-369q-13 0 -22 9t-9 21
q0 13 9 21.5t22 8.5h431q13 0 21.5 -8.5t8.5 -21.5q0 -12 -6 -19l-411 -557h394q12 0 21 -9t9 -21z" />
    <glyph glyph-name="zcaron" unicode="&#x17e;" horiz-adv-x="454" 
d="M419 405q0 -9 -6 -16l-277 -339h256q10 0 17.5 -7t7.5 -18t-7.5 -18t-17.5 -7h-308q-29 0 -29 26q0 10 6 18l277 339h-256q-11 0 -18.5 7.5t-7.5 17.5t7.5 17.5t18.5 7.5h310q12 0 19.5 -8t7.5 -20zM368 577q0 -11 -9 -17l-107 -70q-3 -2 -11 -2t-13 4l-105 68
q-10 7 -10 17q0 5 3 11q7 10 16 10q5 0 13 -4l96 -62l95 62q6 4 11 4q11 0 18 -10q3 -6 3 -11z" />
    <glyph glyph-name="florin" unicode="&#x192;" horiz-adv-x="499" 
d="M484 650q-2 -11 -10 -18.5t-20 -7.5h-28q-55 0 -79 -24t-35 -84l-23 -132h93q23 0 20 -24q-2 -11 -10.5 -18.5t-18.5 -7.5h-93l-64 -362q-15 -85 -56.5 -125.5t-124.5 -40.5h-30q-10 0 -16 7t-4 18q4 25 29 25h26q55 0 79.5 24t35.5 84l65 370h-66q-10 0 -16.5 7.5
t-4.5 18.5q1 10 10 17t20 7h66l22 125q15 85 56.5 125t124.5 40h31q11 0 16.5 -7t4.5 -17z" />
    <glyph glyph-name="circumflex" unicode="&#x2c6;" horiz-adv-x="345" 
d="M300 511q0 -5 -3 -11q-7 -10 -16 -10q-7 0 -13 3l-96 63l-95 -63q-4 -3 -11 -3q-11 0 -18 10q-3 6 -3 11q0 10 10 17l106 69q5 3 11 3q8 0 13 -4l106 -68q9 -6 9 -17z" />
    <glyph glyph-name="caron" unicode="&#x2c7;" horiz-adv-x="345" 
d="M300 577q0 -11 -9 -17l-107 -70q-3 -2 -11 -2t-13 4l-105 68q-10 7 -10 17q0 5 3 11q7 10 16 10q5 0 13 -4l96 -62l95 62q6 4 11 4q11 0 18 -10q3 -6 3 -11z" />
    <glyph glyph-name="breve" unicode="&#x2d8;" horiz-adv-x="335" 
d="M280 605q0 -48 -33 -73.5t-79 -25.5t-79.5 25.5t-33.5 74.5q0 7 5 12t12 5q20 0 20 -18q0 -32 20 -50t56 -18q35 0 55 18t20 50q0 17 18 17q19 0 19 -17z" />
    <glyph glyph-name="dotaccent" unicode="&#x2d9;" horiz-adv-x="283" 
d="M178 558q0 -15 -10.5 -26t-25.5 -11t-26 11t-11 26t11 25t26 10t25.5 -10t10.5 -25z" />
    <glyph glyph-name="ring" unicode="&#x2da;" horiz-adv-x="297" 
d="M242 572q0 -39 -27 -66.5t-66 -27.5t-66.5 27.5t-27.5 66.5t27.5 66t66.5 27t66 -27t27 -66zM214 572q0 27 -18.5 45.5t-46.5 18.5t-46.5 -18.5t-18.5 -45.5t19 -46.5t46 -19.5t46 19.5t19 46.5z" />
    <glyph glyph-name="ogonek" unicode="&#x2db;" horiz-adv-x="309" 
d="M244 -144q0 -8 -8 -13q-24 -17 -66 -17q-47 0 -76 25t-29 67q0 25 17 53.5t40 28.5h32q-50 -39 -50 -82q0 -32 20.5 -47.5t50.5 -15.5q9 0 18.5 2t20 5.5t15.5 4.5q6 1 10.5 -2.5t4.5 -8.5z" />
    <glyph glyph-name="tilde" unicode="&#x2dc;" horiz-adv-x="359" 
d="M314 558q0 -2 -2 -8q-11 -20 -33.5 -33.5t-44.5 -13.5q-23 0 -54 18t-52 18q-10 0 -19 -4t-14 -8t-12 -11.5t-10 -9.5q-3 -3 -9 -3q-8 0 -13 5q-6 6 -6 13q0 5 3 9q11 20 34.5 34t45.5 14q24 0 56 -18t51 -18q8 0 16.5 4t13.5 7.5t12.5 10.5t9.5 9q3 3 8 3q8 0 14 -6
q5 -5 5 -12z" />
    <glyph glyph-name="hungarumlaut" unicode="&#x2dd;" horiz-adv-x="438" 
d="M343 646q1 -6 -1 -11l-61 -147q-7 -18 -26 -13q-8 2 -12 6q-8 8 -6 21q0 4 1 5l61 145q7 18 25 14q6 -1 11 -5q6 -5 8 -15zM200 639q0 -4 -1 -6l-60 -145q-7 -18 -27 -13q-7 2 -10 5q-10 9 -7 22q0 4 1 5l60 145q8 19 26 14q6 -1 12 -7q8 -8 6 -20z" />
    <glyph glyph-name="Delta" unicode="&#x394;" horiz-adv-x="808" 
d="M693 389q0 -10 -7 -17q-6 -6 -16 -6q-9 0 -15 6l-229 231v-589q0 -9 -6.5 -15.5t-15.5 -6.5t-15 6.5t-6 15.5v589l-230 -231q-6 -6 -16 -6t-16 6t-6 16t6 16l267 268q6 6 16 6q9 0 15 -6l267 -268q7 -7 7 -15z" />
    <glyph glyph-name="Delta" unicode="&#x2206;" horiz-adv-x="808" 
d="M693 389q0 -10 -7 -17q-6 -6 -16 -6q-9 0 -15 6l-229 231v-589q0 -9 -6.5 -15.5t-15.5 -6.5t-15 6.5t-6 15.5v589l-230 -231q-6 -6 -16 -6t-16 6t-6 16t6 16l267 268q6 6 16 6q9 0 15 -6l267 -268q7 -7 7 -15z" />
    <glyph glyph-name="Omega" unicode="&#x3a9;" horiz-adv-x="744" 
d="M629 180q-5 -8 -13 -10q-10 -2 -15 2q-3 0 -7 4l-414 415l-1 -325q0 -10 -6 -16t-15 -6q-11 0 -17 6t-6 16v377q0 10 7 17q6 6 16 6h378q9 0 15 -6q7 -7 7 -16q0 -10 -6 -16q-7 -7 -16 -7h-325l416 -415q11 -11 2 -26z" />
    <glyph glyph-name="Omega" unicode="&#x2126;" horiz-adv-x="744" 
d="M629 180q-5 -8 -13 -10q-10 -2 -15 2q-3 0 -7 4l-414 415l-1 -325q0 -10 -6 -16t-15 -6q-11 0 -17 6t-6 16v377q0 10 7 17q6 6 16 6h378q9 0 15 -6q7 -7 7 -16q0 -10 -6 -16q-7 -7 -16 -7h-325l416 -415q11 -11 2 -26z" />
    <glyph glyph-name="pi" unicode="&#x3c0;" horiz-adv-x="747" 
d="M612 23q0 -10 -6 -16q-7 -7 -17 -7h-377q-10 0 -16 6t-6 17q0 9 6 15t16 6l325 1l-417 416q-3 3 -5 11q-2 7 1 13q3 5 10 9q14 9 25 -2l416 -416v325q0 9 7 16q6 6 16 6q9 0 16 -7q6 -6 6 -15v-378z" />
    <glyph glyph-name="endash" unicode="&#x2013;" horiz-adv-x="577" 
d="M482 268q0 -11 -8 -19t-19 -8h-334q-11 0 -18.5 8t-7.5 19t7.5 18.5t18.5 7.5h334q11 0 19 -7.5t8 -18.5z" />
    <glyph glyph-name="emdash" unicode="&#x2014;" horiz-adv-x="911" 
d="M816 274q0 -11 -8 -19t-19 -8h-667q-11 0 -19 8t-8 19t8 19t19 8h667q11 0 19 -8t8 -19z" />
    <glyph glyph-name="quoteleft" unicode="&#x2018;" horiz-adv-x="300" 
d="M205 659q0 -5 -1 -6q-51 -61 -51 -127q1 0 2 0.5t2 0.5q19 0 31.5 -13t12.5 -32t-12.5 -31.5t-31.5 -12.5q-21 0 -34 14t-13 36q0 103 68 181q6 6 11 6q6 0 9 -2q7 -3 7 -14z" />
    <glyph glyph-name="quoteright" unicode="&#x2019;" horiz-adv-x="266" 
d="M191 625q0 -102 -69 -181q-6 -6 -11 -6q-6 0 -9 2q-7 4 -7 14q0 5 1 6q51 62 51 126h-3q-19 0 -32 13t-13 32t13 31.5t32 12.5q21 0 34 -14t13 -36z" />
    <glyph glyph-name="quotesinglbase" unicode="&#x201a;" horiz-adv-x="300" 
d="M190 32q0 -102 -67 -179q-6 -6 -12 -6q-5 0 -8 2q-8 5 -8 14q0 4 2 6q50 60 50 127h-1l-2 -1q-19 0 -32 13t-13 32t13 31.5t32 12.5q46 0 46 -52z" />
    <glyph glyph-name="quotedblleft" unicode="&#x201c;" horiz-adv-x="434" 
d="M339 659q0 -5 -1 -6q-51 -61 -51 -127q1 0 2 0.5t2 0.5q19 0 31.5 -13t12.5 -32t-12.5 -31.5t-31.5 -12.5q-22 0 -35 14t-13 36q0 102 69 181q6 6 11 6q6 0 9 -2q7 -3 7 -14zM205 659q0 -5 -1 -6q-51 -61 -51 -127q1 0 2 0.5t2 0.5q19 0 31.5 -13t12.5 -32t-12.5 -31.5
t-31.5 -12.5q-21 0 -34 14t-13 36q0 103 68 181q6 6 11 6q6 0 9 -2q7 -3 7 -14z" />
    <glyph glyph-name="quotedblright" unicode="&#x201d;" horiz-adv-x="435" 
d="M325 625q0 -102 -69 -181q-6 -6 -11 -6q-6 0 -9 2q-7 4 -7 14q0 5 1 6q51 62 51 126h-4q-19 0 -31.5 13t-12.5 32t12.5 31.5t31.5 12.5q22 0 35 -14t13 -36zM191 625q0 -102 -69 -181q-6 -6 -11 -6q-6 0 -9 2q-7 4 -7 14q0 5 1 6q51 62 51 126h-3q-19 0 -32 13t-13 32
t13 31.5t32 12.5q21 0 34 -14t13 -36z" />
    <glyph glyph-name="quotedblbase" unicode="&#x201e;" horiz-adv-x="435" 
d="M325 34q0 -102 -69 -181q-6 -6 -11 -6q-6 0 -9 2q-7 3 -7 14q0 5 1 6q51 61 51 126h-4q-19 0 -31.5 13t-12.5 32t12.5 31.5t31.5 12.5q22 0 35 -14t13 -36zM191 34q0 -102 -69 -181q-6 -6 -11 -6q-6 0 -9 2q-7 3 -7 14q0 5 1 6q51 61 51 126h-3q-19 0 -32 13t-13 32
t13 31.5t32 12.5q21 0 34 -14t13 -36z" />
    <glyph glyph-name="dagger" unicode="&#x2020;" horiz-adv-x="418" 
d="M363 469q0 -10 -6.5 -17t-16.5 -7h-105v-562q0 -11 -7.5 -18.5t-18.5 -7.5q-10 0 -17.5 7.5t-7.5 18.5v562h-106q-10 0 -16.5 7t-6.5 17t6.5 16t16.5 6h106v158q0 11 7.5 18.5t17.5 7.5q11 0 18.5 -7.5t7.5 -18.5v-158h105q10 0 16.5 -6t6.5 -16z" />
    <glyph glyph-name="daggerdbl" unicode="&#x2021;" horiz-adv-x="418" 
d="M363 15q0 -10 -6.5 -16.5t-16.5 -6.5h-105v-157q0 -11 -7.5 -18.5t-18.5 -7.5t-18.5 7.5t-7.5 18.5v157h-104q-10 0 -17 6.5t-7 16.5t7 16.5t17 6.5h104v407h-104q-10 0 -17 7t-7 17t7 16.5t17 6.5h104v157q0 11 7.5 18.5t18.5 7.5t18.5 -7.5t7.5 -18.5v-157h105
q10 0 16.5 -6.5t6.5 -16.5t-6.5 -17t-16.5 -7h-105v-407h105q10 0 16.5 -6.5t6.5 -16.5z" />
    <glyph glyph-name="bullet" unicode="&#x2022;" horiz-adv-x="404" 
d="M329 363q0 -53 -37.5 -90t-89.5 -37t-89.5 37t-37.5 90t37.5 90t89.5 37t89.5 -37t37.5 -90z" />
    <glyph glyph-name="ellipsis" unicode="&#x2026;" horiz-adv-x="836" 
d="M726 40q0 -19 -13 -32t-32 -13t-31.5 13t-12.5 32t12.5 32t31.5 13t32 -13t13 -32zM463 40q0 -19 -13 -32t-32 -13t-32 13t-13 32t13 32t32 13t32 -13t13 -32zM200 40q0 -19 -13 -32t-32 -13t-32 13t-13 32t13 32t32 13t32 -13t13 -32z" />
    <glyph glyph-name="perthousand" unicode="&#x2030;" horiz-adv-x="1207" 
d="M1162 142q0 -64 -45 -109.5t-110 -45.5t-110 45.5t-45 109.5t45 109.5t110 45.5t110 -45.5t45 -109.5zM771 142q0 -64 -45.5 -109.5t-109.5 -45.5q-65 0 -110.5 45.5t-45.5 109.5t45.5 109.5t110.5 45.5q64 0 109.5 -45.5t45.5 -109.5zM603 654q0 -6 -2 -9l-357 -643
q-6 -10 -18 -10q-6 0 -9 2q-11 6 -11 18q0 7 2 10l358 643q6 10 17 10q7 0 10 -2q10 -6 10 -19zM355 523q0 -65 -45.5 -110t-109.5 -45t-109.5 45t-45.5 110t45.5 110t109.5 45t109.5 -45t45.5 -110zM1119 142q0 50 -31 83t-81 33t-81 -33t-31 -83q0 -49 31 -82t81 -33
t81 33t31 82zM727 142q0 50 -31 83t-80 33q-50 0 -81 -33t-31 -83q0 -49 31 -82t81 -33t80.5 32.5t30.5 82.5zM312 523q0 50 -31 83t-81 33q-49 0 -80 -33t-31 -83t31 -83t80 -33q50 0 81 33t31 83z" />
    <glyph glyph-name="guilsinglleft" unicode="&#x2039;" horiz-adv-x="438" 
d="M303 16q0 -11 -7 -17q-7 -7 -17 -7t-16 7l-181 186q-7 7 -7 17q0 8 7 17l181 186q7 7 17 7q8 0 16 -8q7 -7 7 -16q0 -8 -7 -17l-164 -169l164 -170q7 -9 7 -16z" />
    <glyph glyph-name="guilsinglright" unicode="&#x203a;" horiz-adv-x="438" 
d="M363 202q0 -10 -7 -17l-181 -186q-6 -7 -16 -7t-17 7q-7 6 -7 17q0 7 7 16l164 170l-164 169q-7 9 -7 17q0 9 7 16q8 8 17 8t16 -7l181 -186q7 -9 7 -17z" />
    <glyph glyph-name="fraction" unicode="&#x2044;" horiz-adv-x="408" 
d="M433 657q0 -5 -3 -10l-422 -647q-5 -8 -14 -8q-6 0 -10 3q-9 5 -9 15q0 6 3 10l422 647q5 8 15 8q5 0 10 -3q8 -5 8 -15z" />
    <glyph glyph-name="fraction" unicode="&#x2215;" horiz-adv-x="408" 
d="M433 657q0 -5 -3 -10l-422 -647q-5 -8 -14 -8q-6 0 -10 3q-9 5 -9 15q0 6 3 10l422 647q5 8 15 8q5 0 10 -3q8 -5 8 -15z" />
    <glyph glyph-name="Euro" unicode="&#x20ac;" horiz-adv-x="651" 
d="M596 537h-18q-8 56 -56 83t-119 27q-116 0 -170 -65t-70 -184h369l-14 -31h-358q-1 -8 -1 -31v-32h327l-15 -31h-309q11 -121 73.5 -188t167.5 -67q67 0 116 27t59 87h18l-6 -75q-59 -69 -196 -69q-131 0 -205 73t-87 212h-77l15 31h58q-1 8 -1 33q0 23 1 30h-73l15 31
h62q18 135 84.5 207.5t207.5 72.5q139 0 196 -64z" />
    <glyph glyph-name="trademark" unicode="&#x2122;" horiz-adv-x="700" 
d="M640 360q0 -8 -6 -13.5t-14 -5.5t-13.5 5.5t-5.5 13.5v209q-9 -18 -22.5 -47.5l-26 -57.5l-23.5 -54t-19 -42l-7 -17q-4 -10 -17 -10t-17 10l-99 217v-208q0 -8 -6 -13.5t-13 -5.5q-8 0 -13.5 5.5t-5.5 13.5v291q0 8 5.5 13.5t13.5 5.5q13 0 18 -12l117 -257l117 258
q5 11 17 11q8 0 14 -6t6 -13v-291zM280 648q0 -8 -6 -13.5t-13 -5.5h-94v-269q0 -8 -6 -13.5t-14 -5.5t-14 5.5t-6 13.5v269h-94q-7 0 -12.5 5.5t-5.5 13.5t5.5 13t12.5 5h228q8 0 13.5 -5.5t5.5 -12.5z" />
    <glyph glyph-name="partialdiff" unicode="&#x2202;" horiz-adv-x="808" 
d="M693 277q0 -9 -7 -16l-267 -268q-6 -6 -15 -6q-10 0 -16 6l-267 268q-6 6 -6 15q0 11 6 17t17 6q9 0 15 -6l229 -231v591q0 9 6.5 15.5t15.5 6.5t15 -6.5t6 -15.5v-591l230 231q6 6 16 6q9 0 15 -6q7 -7 7 -16z" />
    <glyph glyph-name="product" unicode="&#x220f;" horiz-adv-x="644" 
d="M529 466q0 -3 -4 -7l-415 -414l325 -1q10 0 16 -6t6 -15q0 -11 -6 -17t-16 -6h-377q-10 0 -17 7q-6 6 -6 16v378q0 9 6 15q7 7 16 7q10 0 16 -6q7 -7 7 -16v-325l413 414q4 4 8 4q16 8 26 -2q11 -11 2 -26z" />
    <glyph glyph-name="summation" unicode="&#x2211;" horiz-adv-x="744" 
d="M629 466q0 -3 -4 -7l-415 -414l325 -1q10 0 16 -6t6 -15q0 -11 -6 -17t-16 -6h-377q-10 0 -17 7q-6 6 -6 16v378q0 9 6 15q7 7 16 7q10 0 16 -6q7 -7 7 -16v-325l413 414q4 4 8 4q16 8 26 -2q11 -11 2 -26z" />
    <glyph glyph-name="minus" unicode="&#x2212;" horiz-adv-x="431" 
d="M336 268q0 -11 -8 -19t-19 -8h-188q-11 0 -18.5 8t-7.5 19t7.5 18.5t18.5 7.5h188q11 0 19 -7.5t8 -18.5z" />
    <glyph glyph-name="radical" unicode="&#x221a;" horiz-adv-x="508" 
d="M443 647q0 -3 -48.5 -158l-98.5 -313.5t-52 -166.5q-5 -17 -24 -17q-14 0 -21 11l-131 187q-11 16 -13 23q-2 10 3.5 18.5t15.5 10.5q16 3 25 -9l112 -160l184 585q6 18 26 16q10 -2 16.5 -9.5t5.5 -17.5z" />
    <glyph glyph-name="infinity" unicode="&#x221e;" horiz-adv-x="916" 
d="M801 314q0 -9 -6.5 -15.5t-15.5 -6.5h-589l231 -229q6 -6 6 -16t-6 -16t-16 -6t-16 6l-268 267q-6 6 -6 16q0 9 6 15l268 267q6 6 15 6q11 0 17 -6t6 -16q0 -9 -6 -15l-231 -229h589q9 0 15.5 -6.5t6.5 -15.5z" />
    <glyph glyph-name="integral" unicode="&#x222b;" horiz-adv-x="747" 
d="M612 23q0 -10 -6 -16q-7 -7 -17 -7h-377q-10 0 -16 6t-6 17q0 9 6 15t16 6l325 1l-417 416q-3 3 -5 11q-2 7 1 13q3 5 10 9q14 9 25 -2l416 -416v325q0 9 7 16q6 6 16 6q9 0 16 -7q6 -6 6 -15v-378z" />
    <glyph glyph-name="approxequal" unicode="&#x2248;" horiz-adv-x="743" 
d="M613 266q0 -9 -7 -16q-6 -6 -16 -6t-16 6t-6 16v325l-417 -417q-11 -11 -25 -2q-7 5 -9 8q-3 7 -2 14q2 8 6 12l416 415h-325q-9 0 -16 7q-6 6 -6 16t6 16t16 6h378q9 0 15 -6q8 -8 8 -17v-377z" />
    <glyph glyph-name="notequal" unicode="&#x2260;" horiz-adv-x="504" 
d="M409 177q0 -10 -7 -17t-17 -7h-169l-45 -75q-7 -11 -18 -4q-12 8 -5 18l38 61h-68q-10 0 -16.5 7t-6.5 17t6.5 17t16.5 7h94l49 81h-143q-10 0 -16.5 7t-6.5 17t6.5 17t16.5 7h170l45 74q8 12 18 5q12 -8 5 -18l-37 -61h66q10 0 17 -7t7 -17t-7 -17t-17 -7h-92l-50 -81
h142q10 0 17 -7t7 -17z" />
    <glyph glyph-name="lessequal" unicode="&#x2264;" horiz-adv-x="916" 
d="M801 314q0 -9 -6.5 -15.5t-15.5 -6.5h-589l231 -229q6 -6 6 -16t-6 -16t-16 -6t-16 6l-268 267q-6 6 -6 16q0 9 6 15l268 267q6 6 15 6q11 0 17 -6t6 -16q0 -9 -6 -15l-231 -229h589q9 0 15.5 -6.5t6.5 -15.5z" />
    <glyph glyph-name="greaterequal" unicode="&#x2265;" horiz-adv-x="916" 
d="M801 314q0 -9 -7 -16l-267 -267q-6 -6 -16 -6t-16 6t-6 16t6 16l230 229h-588q-9 0 -15.5 6.5t-6.5 15.5t6.5 15.5t15.5 6.5h588l-230 229q-6 6 -6 15q0 10 6 16t16 6t16 -6l267 -267q7 -7 7 -15z" />
    <glyph glyph-name="lozenge" unicode="&#x25ca;" horiz-adv-x="916" 
d="M801 314q0 -9 -7 -16l-267 -267q-6 -6 -16 -6t-16 6t-6 16t6 16l230 229h-588q-9 0 -15.5 6.5t-6.5 15.5t6.5 15.5t15.5 6.5h588l-230 229q-6 6 -6 15q0 10 6 16t16 6t16 -6l267 -267q7 -7 7 -15z" />
    <glyph glyph-name="fi" unicode="&#xfb01;" horiz-adv-x="604" 
d="M344 649q0 -11 -7 -18t-18 -7h-28q-55 0 -75 -24t-20 -84v-83h92q10 0 17.5 -7.5t7.5 -17.5t-7.5 -17.5t-17.5 -7.5h-92v-361q0 -13 -8.5 -21.5t-21.5 -8.5t-21.5 8.5t-8.5 21.5v361h-67q-10 0 -17 7t-7 18t7 18t17 7h67v76q0 85 34.5 125t117.5 40h31q11 0 18 -7t7 -18z
M504 594q0 -15 -10 -25.5t-25 -10.5t-26 10.5t-11 25.5t11 25.5t26 10.5t25 -10.5t10 -25.5zM498 22q0 -13 -8 -21.5t-21 -8.5t-22 8.5t-9 21.5v390q0 13 9 21.5t22 8.5t21 -8.5t8 -21.5v-390z" />
    <glyph glyph-name="fl" unicode="&#xfb02;" horiz-adv-x="610" 
d="M344 649q0 -11 -7 -18t-18 -7h-28q-55 0 -75 -24t-20 -84v-83h92q10 0 17.5 -7.5t7.5 -17.5t-7.5 -17.5t-17.5 -7.5h-92v-361q0 -13 -8.5 -21.5t-21.5 -8.5t-21.5 8.5t-8.5 21.5v361h-67q-10 0 -17 7t-7 18t7 18t17 7h67v76q0 85 34.5 125t117.5 40h31q11 0 18 -7t7 -18z
M510 21q0 -13 -8 -21t-21 -8t-22 8t-9 21v624q0 13 9 21.5t22 8.5t21 -8.5t8 -21.5v-624z" />
    <glyph glyph-name="nbspace" horiz-adv-x="300" 
 />
    <glyph glyph-name="apple" horiz-adv-x="876" 
d="M786 333h-333v-333h-333v666h666v-333z" />
    </font>
</defs>
</svg>
